<svg xmlns="http://www.w3.org/2000/svg" x="0px" y="0px" width="50" height="50" viewBox="0 0 172 172" style=" fill:#000000;" class="inline">
                    <g fill="none" fill-rule="nonzero" stroke="none" stroke-width="1" stroke-linecap="butt" stroke-linejoin="miter" stroke-miterlimit="10" stroke-dasharray="" stroke-dashoffset="0" font-family="none" font-weight="none" font-size="none" text-anchor="none" style="mix-blend-mode: normal">
                        <path d="M0,172v-172h172v172z" fill="none"></path>
                        <g>
                            <path d="M22.36,46.44c-1.89986,0 -3.44,1.54014 -3.44,3.44c0,1.89986 1.54014,3.44 3.44,3.44c1.89986,0 3.44,-1.54014 3.44,-3.44c0,-1.89986 -1.54014,-3.44 -3.44,-3.44z" fill="#78a0cf"></path>
                            <path d="M132.44,20.64c-0.94993,0 -1.72,0.77007 -1.72,1.72c0,0.94993 0.77007,1.72 1.72,1.72c0.94993,0 1.72,-0.77007 1.72,-1.72c0,-0.94993 -0.77007,-1.72 -1.72,-1.72z" fill="#f1bc19"></path>
                            <path d="M86,22.36c-35.1474,0 -63.64,28.4926 -63.64,63.64c0,35.1474 28.4926,63.64 63.64,63.64c35.1474,0 63.64,-28.4926 63.64,-63.64c0,-35.1474 -28.4926,-63.64 -63.64,-63.64z" fill="#cee1f4"></path>
                            <path d="M142.76,18.92c-3.79972,0 -6.88,3.08028 -6.88,6.88c0,3.79972 3.08028,6.88 6.88,6.88c3.79972,0 6.88,-3.08028 6.88,-6.88c0,-3.79972 -3.08028,-6.88 -6.88,-6.88z" fill="#f1bc19"></path>
                            <path d="M149.64,37.84c-1.89986,0 -3.44,1.54014 -3.44,3.44c0,1.89986 1.54014,3.44 3.44,3.44c1.89986,0 3.44,-1.54014 3.44,-3.44c0,-1.89986 -1.54014,-3.44 -3.44,-3.44z" fill="#78a0cf"></path>
                            <path d="M139.32,127.28c-1.89986,0 -3.44,1.54014 -3.44,3.44c0,1.89986 1.54014,3.44 3.44,3.44c1.89986,0 3.44,-1.54014 3.44,-3.44c0,-1.89986 -1.54014,-3.44 -3.44,-3.44zM25.8,101.48c-3.79972,0 -6.88,3.08028 -6.88,6.88c0,3.79972 3.08028,6.88 6.88,6.88c3.79972,0 6.88,-3.08028 6.88,-6.88c0,-3.79972 -3.08028,-6.88 -6.88,-6.88z" fill="#fbcd59"></path>
                            <path d="M43,146.2c-1.89986,0 -3.44,1.54014 -3.44,3.44c0,1.89986 1.54014,3.44 3.44,3.44c1.89986,0 3.44,-1.54014 3.44,-3.44c0,-1.89986 -1.54014,-3.44 -3.44,-3.44z" fill="#78a0cf"></path>
                            <path d="M31.82,87.72c-2.37482,0 -4.3,1.92518 -4.3,4.3c0,2.37482 1.92518,4.3 4.3,4.3c2.37482,0 4.3,-1.92518 4.3,-4.3c0,-2.37482 -1.92518,-4.3 -4.3,-4.3z" fill="#ffffff"></path>
                            <path d="M36.12,113.52c-0.94993,0 -1.72,0.77007 -1.72,1.72c0,0.94993 0.77007,1.72 1.72,1.72c0.94993,0 1.72,-0.77007 1.72,-1.72c0,-0.94993 -0.77007,-1.72 -1.72,-1.72z" fill="#f1bc19"></path>
                            <path d="M137.6,56.76c-0.94993,0 -1.72,0.77007 -1.72,1.72c0,0.94993 0.77007,1.72 1.72,1.72c0.94993,0 1.72,-0.77007 1.72,-1.72c0,-0.94993 -0.77007,-1.72 -1.72,-1.72z" fill="#ffffff"></path>
                            <g>
                                <path d="M60.60076,81.60884c2.08808,-12.15352 12.6506,-21.40884 25.39924,-21.40884c5.79124,0 11.11808,1.93156 15.42496,5.15312l10.99596,-11.8422c-7.19476,-5.89444 -16.39332,-9.43592 -26.42092,-9.43592c-20.54024,0 -37.60092,14.8522 -41.05812,34.40172z" fill="#ea5167"></path>
                                <path d="M101.3166,106.75696c-4.28452,3.16652 -9.5804,5.04304 -15.3166,5.04304c-13.48824,0 -24.54096,-10.3544 -25.68648,-23.54508l-15.32348,5.1084c3.56556,19.41536 20.56432,34.13168 41.00996,34.13168c10.76892,0 20.58496,-4.08328 27.9844,-10.7844z" fill="#00a698"></path>
                                <path d="M117.82,78.26h-7.20508h-23.75492v15.48h23.75492c-1.84556,5.87208 -5.73276,10.83772 -10.82912,14.06788l12.4614,10.38536c9.43076,-7.64712 15.4628,-19.32076 15.4628,-32.40824c0,-2.5714 -0.24424,-5.0826 -0.68972,-7.525z" fill="#48bed8"></path>
                                <path d="M60.2,86c0,-3.75476 0.82044,-7.31344 2.26352,-10.53156l-13.44696,-8.96464c-3.01344,5.76716 -4.72656,12.32208 -4.72656,19.2812c0,6.50848 1.49296,12.6678 4.15036,18.15632l13.47964,-9.34132c-0.62952,-2.23256 -1.72,-6.1662 -1.72,-8.6z" fill="#fde751"></path>
                            </g>
                            <g fill="#472b29">
                                <path d="M86,128.699c-23.66204,0 -42.914,-19.25024 -42.914,-42.914c0,-23.66376 19.25196,-42.914 42.914,-42.914c9.89,0 19.54264,3.4486 27.18288,9.71112l0.99072,0.81184l-12.60244,13.57424l-0.86688,-0.64844c-4.29656,-3.2164 -9.38088,-4.91576 -14.70428,-4.91576c-13.5622,0 -24.596,11.0338 -24.596,24.596c0,13.5622 11.0338,24.596 24.596,24.596c10.24432,0 19.2554,-6.22296 22.91728,-15.652l-22.91728,0.01376l-0.01376,-17.51648l42.02476,-0.01376l0.17888,0.98728c0.47128,2.58516 0.72412,4.81772 0.72412,7.3702c0,23.66376 -19.25024,42.914 -42.914,42.914zM86,45.279c-22.3342,0 -40.506,18.17008 -40.506,40.506c0,22.33592 18.1718,40.506 40.506,40.506c22.3342,0 40.506,-18.17008 40.506,-40.506c0,-2.08292 -0.1806,-3.83216 -0.516,-5.94776h-37.93976l0.01376,12.69876h24.1918l-0.49192,1.5652c-3.5518,11.30556 -13.9062,18.9028 -25.76388,18.9028c-14.89004,0 -27.004,-12.11396 -27.004,-27.004c0,-14.89004 12.11396,-27.004 27.004,-27.004c5.4868,0 10.7414,1.6426 15.265,4.76096l9.38776,-10.11016c-7.0434,-5.40424 -15.7466,-8.3678 -24.65276,-8.3678z">
                                </path>
                            </g>
                        </g>
                    </g>
                </svg>