<svg xmlns="http://www.w3.org/2000/svg" x="0px" y="0px" width="64" height="64" viewBox="0 0 172 172" style=" fill:#000000;">
                            <g fill="none" fill-rule="nonzero" stroke="none" stroke-width="1" stroke-linecap="butt" stroke-linejoin="miter" stroke-miterlimit="10" stroke-dasharray="" stroke-dashoffset="0" font-family="none" font-weight="none" font-size="none" text-anchor="none" style="mix-blend-mode: normal">
                                <path d="M0,172v-172h172v172z" fill="none"></path>
                                <g>
                                    <path d="M94.0625,16.125c-41.55943,0 -75.25,33.69057 -75.25,75.25c0,41.55943 33.69057,75.25 75.25,75.25c41.55943,0 75.25,-33.69057 75.25,-75.25c0,-41.55943 -33.69057,-75.25 -75.25,-75.25z" fill="#72caaf"></path>
                                    <path d="M94.0625,16.125c-41.55943,0 -75.25,33.69057 -75.25,75.25c0,41.55943 33.69057,75.25 75.25,75.25c41.55943,0 75.25,-33.69057 75.25,-75.25c0,-41.55943 -33.69057,-75.25 -75.25,-75.25zM94.0625,150.5c-26.58344,0.00423 -49.90126,-17.7336 -56.99218,-43.35387c-7.09093,-25.62026 3.78871,-52.82293 26.59142,-66.48731c22.80271,-13.66439 51.92131,-10.43041 71.17014,7.90431l1.8275,1.80063c0.69875,0.71667 1.37062,1.45125 2.01563,2.20375c15.20791,17.48044 18.80386,42.23289 9.19863,63.31809c-9.60522,21.0852 -30.64119,34.61675 -53.81113,34.61441z" fill="#f9e3ae"></path>
                                    <path d="M94.0625,150.5c-32.65384,0 -59.125,-26.47116 -59.125,-59.125h-10.535c-1.49821,-0.00422 -2.9302,0.61707 -3.95064,1.71404c-1.02044,1.09698 -1.53673,2.57008 -1.42436,4.06408c2.91782,37.8837 33.61936,67.64879 71.57524,69.39208c37.95588,1.74329 71.2566,-25.08222 77.63476,-62.53896c0.55668,-3.13193 -0.30231,-6.34958 -2.34588,-8.78734c-2.04357,-2.43776 -5.06185,-3.84528 -8.24287,-3.84391h-4.46125c0,32.65384 -26.47116,59.125 -59.125,59.125z" fill="#f6d397"></path>
                                    <path d="M94.0625,13.4375c-42.01563,-0.02499 -76.48869,33.25935 -77.9375,75.25v5.375c1.47201,42.66279 36.99049,76.20273 79.66758,75.22974c42.67708,-0.97299 76.63011,-36.09681 76.15627,-78.78235c-0.47383,-42.68554 -35.19818,-77.047 -77.88635,-77.07239zM94.0625,163.9375c-39.04866,0.02679 -71.11626,-30.85312 -72.5625,-69.875v-5.375c1.47109,-39.69196 34.5807,-70.82503 74.28803,-69.85326c39.70733,0.97177 71.25435,33.6872 70.78205,73.40361c-0.4723,39.71641 -32.78838,71.6724 -72.50758,71.69965z" fill="#8d6c9f"></path>
                                    <path d="M94.0625,142.4375c-1.48427,0 -2.6875,1.20323 -2.6875,2.6875v5.375c0,1.48427 1.20323,2.6875 2.6875,2.6875c1.48427,0 2.6875,-1.20323 2.6875,-2.6875v-5.375c0,-1.48427 -1.20323,-2.6875 -2.6875,-2.6875zM110.1875,142.6525c-0.42453,-1.3848 -1.8701,-2.18407 -3.26863,-1.80726c-1.39854,0.37681 -2.24689,1.79413 -1.91824,3.20476l1.3975,5.18687c0.39333,1.43974 1.87933,2.28802 3.31906,1.89469c1.43974,-0.39333 2.28802,-1.87933 1.89469,-3.31906zM69.20313,135.7725c-0.61953,-0.3589 -1.35667,-0.45576 -2.04788,-0.26908c-0.69122,0.18668 -1.27937,0.64146 -1.63399,1.26345l-2.6875,4.64937c-0.66758,1.27616 -0.21049,2.85172 1.03641,3.57248c1.2469,0.72075 2.84032,0.33045 3.61297,-0.88498l2.6875,-4.64937c0.36113,-0.61627 0.46208,-1.35094 0.28054,-2.04177c-0.18153,-0.69083 -0.63061,-1.28098 -1.24804,-1.6401zM122.60375,136.76688c-0.77265,-1.21543 -2.36607,-1.60573 -3.61297,-0.88498c-1.2469,0.72075 -1.70399,2.29632 -1.03641,3.57248l2.6875,4.64937c0.77265,1.21543 2.36607,1.60573 3.61297,0.88498c1.2469,-0.72075 1.70399,-2.29632 1.03641,-3.57248zM81.18938,140.74438c-1.43191,-0.37551 -2.89787,0.47763 -3.27875,1.90813l-1.3975,5.16c-0.28786,0.939 -0.04058,1.96024 0.64494,2.66355c0.68552,0.70331 1.70009,0.97667 2.64616,0.71295c0.94606,-0.26371 1.67293,-1.02249 1.89578,-1.97901l1.3975,-5.18687c0.37551,-1.43191 -0.47763,-2.89787 -1.90812,-3.27875zM120.66875,41.25312c1.23851,-0.00734 2.31162,-0.86012 2.59849,-2.06497c0.28687,-1.20485 -0.2868,-2.44972 -1.38911,-3.0144c-2.00959,-1.00846 -4.07313,-1.90565 -6.18125,-2.6875c-0.9121,-0.40234 -1.97197,-0.26675 -2.75341,0.35225c-0.78144,0.619 -1.15603,1.6197 -0.97314,2.59968c0.18289,0.97998 0.8932,1.77821 1.8453,2.07369c1.92447,0.72176 3.80847,1.54714 5.64375,2.4725c0.37669,0.18254 0.79082,0.27457 1.20937,0.26875zM103.87188,30.34188c-30.60996,-4.86054 -60.08721,13.69921 -68.93437,43.40313c-0.32654,1.48427 0.61198,2.95221 2.09625,3.27875c1.48427,0.32654 2.95221,-0.61198 3.27875,-2.09625c8.21323,-26.88258 34.95701,-43.62322 62.72625,-39.26438c1.48427,0.23748 2.88002,-0.77323 3.1175,-2.2575c0.23748,-1.48427 -0.77323,-2.88002 -2.2575,-3.1175zM34.7225,108.6825c2.91319,9.97169 8.29262,19.04831 15.64125,26.39125c1.06629,0.91315 2.65577,0.85176 3.64845,-0.14092c0.99268,-0.99268 1.05407,-2.58216 0.14092,-3.64845c-6.62231,-6.62943 -11.48977,-14.80342 -14.16312,-23.78438c-0.32654,-1.45458 -1.77042,-2.36904 -3.225,-2.0425c-1.45458,0.32654 -2.36904,1.77042 -2.0425,3.225zM137.76125,47.67625c-1.77069,-1.77702 -3.64635,-3.44627 -5.61687,-4.99875c-0.745,-0.67906 -1.80736,-0.88412 -2.75157,-0.53111c-0.94421,0.35301 -1.61148,1.20472 -1.72825,2.20598c-0.11678,1.00126 0.33657,1.98367 1.1742,2.5445c1.80078,1.419 3.5149,2.94465 5.13313,4.56875c10.58533,10.58425 16.5322,24.94022 16.5322,39.90938c0,14.96915 -5.94687,29.32513 -16.5322,39.90937c-0.76695,0.6568 -1.10102,1.68807 -0.86486,2.66981c0.23616,0.98175 1.00268,1.74827 1.98443,1.98443c0.98175,0.23616 2.01302,-0.09792 2.66981,-0.86486c24.1269,-24.13716 24.1269,-63.26034 0,-87.3975z" fill="#8d6c9f"></path>
                                    <path d="M2.6875,83.3125h77.9375l-10.75,-10.75l10.75,-10.75l29.5625,29.5625l-29.5625,29.5625l-10.75,-10.75l10.75,-10.75h-77.9375z" fill="#faefde"></path>
                                    <path d="M112.09563,89.46688l-29.5625,-29.5625c-1.04823,-1.04201 -2.74115,-1.04201 -3.78937,0l-10.75,10.75c-1.04201,1.04823 -1.04201,2.74115 0,3.78937l6.15437,6.18125h-71.46062c-1.48427,0 -2.6875,1.20323 -2.6875,2.6875v16.125c0,1.48427 1.20323,2.6875 2.6875,2.6875h71.46062l-6.15437,6.15438c-1.04201,1.04823 -1.04201,2.74115 0,3.78937l10.75,10.75c1.04823,1.04201 2.74115,1.04201 3.78937,0l29.5625,-29.5625c1.04201,-1.04823 1.04201,-2.74115 0,-3.78937zM80.625,117.14813l-6.96062,-6.96063l8.84187,-8.84188c0.77175,-0.76542 1.00644,-1.92036 0.59466,-2.92629c-0.41179,-1.00593 -1.38896,-1.66478 -2.47591,-1.66933h-75.25v-10.75h75.25c1.09184,0.00635 2.079,-0.6485 2.49768,-1.65689c0.41869,-1.00839 0.18568,-2.16986 -0.58956,-2.93873l-8.86875,-8.84188l6.96062,-6.96062l25.77313,25.77312z" fill="#8d6c9f"></path>
                                </g>
                            </g>
                        </svg>