<svg xmlns="http://www.w3.org/2000/svg" x="0px" y="0px" width="25" height="25" viewBox="0 0 172 172" style=" fill:#000000;" class="inline-block mb-1">
                            <g fill="none" fill-rule="nonzero" stroke="none" stroke-width="1" stroke-linecap="butt" stroke-linejoin="miter" stroke-miterlimit="10" stroke-dasharray="" stroke-dashoffset="0" font-family="none" font-weight="none" font-size="none" text-anchor="none" style="mix-blend-mode: normal">
                                <path d="M0,172v-172h172v172z" fill="none"></path>
                                <g>
                                    <path d="M166.11392,18.19145c3.95965,30.49826 4.09223,61.88878 0.00358,93.38322c-0.8206,6.32469 -5.88393,11.25902 -12.23729,11.90762c-31.73345,3.22505 -63.65253,4.17895 -95.5114,2.86815c-0.62387,-0.0258 -1.18861,0.35368 -1.40218,0.94028c-4.34773,11.94381 -14.62598,19.1045 -26.21897,19.90647c-4.34307,0.29742 -6.97687,-4.62616 -4.43624,-8.15222c2.73055,-3.79302 4.53837,-8.14505 5.29912,-12.78304c0.13545,-0.82526 -0.46405,-1.58708 -1.29755,-1.65624c-4.06572,-0.33756 -8.13108,-0.71202 -12.19357,-1.12339c-6.34619,-0.64501 -11.41311,-5.57218 -12.2337,-11.8897c-3.95965,-30.50184 -4.09223,-61.89236 -0.00358,-93.38681c0.8206,-6.32111 5.88393,-11.25902 12.23729,-11.90403c45.11134,-4.58316 90.59893,-4.59033 135.76043,0c6.34655,0.64501 11.41347,5.57218 12.23406,11.8897z" fill="#80aaff"></path>
                                    <circle cx="376.496" cy="397.486" transform="scale(0.35834,0.35834)" r="74.5" fill="#ff6d7a"></circle>
                                    <path d="M115.38526,146.28844c0.04193,4.23091 -6.07027,4.77129 -6.78157,0.60022c-2.04182,-11.96997 4.13774,-23.15517 14.24614,-28.27655c3.77869,-1.91425 6.9482,3.33291 3.52427,5.82696c-6.89373,5.02105 -11.07663,12.99482 -10.98883,21.84938z" fill="#ff8c95"></path>
                                    <path d="M154.42812,6.36841c5.9556,0.8464 4.88416,9.81563 -1.11264,9.34011c-40.25405,-3.19173 -80.70661,-2.737 -120.86211,1.34306c-6.35336,0.64501 -11.41669,5.58293 -12.23729,11.90403c-4.88703,37.64426 -2.72553,78.77445 -0.21536,92.51174c0.19995,1.09401 -0.68084,2.13534 -1.88092,2.01458c-6.34691,-0.6382 -11.41311,-5.57218 -12.2337,-11.8897c-3.95965,-30.50184 -4.09223,-61.89236 -0.00358,-93.38681c0.8206,-6.32111 5.88393,-11.25902 12.23729,-11.90403c45.11134,-4.58316 90.59893,-4.59033 135.76043,0c0.18383,0.01899 0.36622,0.04121 0.5479,0.06701z" fill="#9cbcff"></path>
                                    <path d="M137.91978,45.02748c2.51662,-1.99559 5.96348,-4.729 5.73379,-10.77419c-0.27664,-7.28325 -5.90221,-11.72343 -12.38385,-11.6127c-5.92048,0.11216 -11.91442,4.299 -11.91442,12.08356c0,1.58314 1.28357,2.86671 2.86671,2.86671c1.58314,0 2.86671,-1.28357 2.86671,-2.86671c0,-4.59964 3.38846,-6.29566 6.28993,-6.35121c3.14729,-0.04766 6.38238,1.80281 6.54578,6.09822c0.11933,3.1412 -1.26852,4.2413 -3.56727,6.06418c-3.63034,2.87854 -5.71515,5.33352 -5.71515,10.34382c0,1.58314 1.28357,2.86671 2.86671,2.86671c1.58314,0 2.86671,-1.28357 2.86671,-2.86671c0.00036,-2.91688 1.08469,-3.9016 3.54433,-5.85168z" fill="#000000"></path>
                                    <path d="M133.89205,59.67962c-0.97934,-1.48388 -3.12293,-1.7254 -4.41116,-0.43717c-1.10906,1.10906 -1.12375,2.93265 0,4.0564c1.15708,1.12339 2.90972,1.11479 4.0564,0c0.95497,-0.95497 1.12196,-2.48007 0.35476,-3.61923z" fill="#000000"></path>
                                    <path d="M52.05022,56.97093h54.73346c1.58314,0 2.86671,-1.28357 2.86671,-2.86671c0,-1.58314 -1.28357,-2.86671 -2.86671,-2.86671h-54.73346c-1.58314,0 -2.86671,1.28357 -2.86671,2.86671c0,1.58314 1.28357,2.86671 2.86671,2.86671z" fill="#000000"></path>
                                    <path d="M35.42793,51.2375h-1.74547c-1.58314,0 -2.86671,1.28357 -2.86671,2.86671c0,1.58314 1.28357,2.86671 2.86671,2.86671h1.74547c1.58314,0 2.86671,-1.28357 2.86671,-2.86671c0,-1.58314 -1.28357,-2.86671 -2.86671,-2.86671z" fill="#000000"></path>
                                    <path d="M52.05022,103.1967h56.16682c1.58314,0 2.86671,-1.28357 2.86671,-2.86671c0,-1.58314 -1.28357,-2.86671 -2.86671,-2.86671h-56.16682c-1.58314,0 -2.86671,1.28357 -2.86671,2.86671c0,1.58314 1.28357,2.86671 2.86671,2.86671z" fill="#000000"></path>
                                    <path d="M35.42793,97.46327h-1.74547c-1.58314,0 -2.86671,1.28357 -2.86671,2.86671c0,1.58314 1.28357,2.86671 2.86671,2.86671h1.74547c1.58314,0 2.86671,-1.28357 2.86671,-2.86671c0,-1.58314 -1.28357,-2.86671 -2.86671,-2.86671z" fill="#000000"></path>
                                    <path d="M52.05022,34.03722h54.73346c1.58314,0 2.86671,-1.28357 2.86671,-2.86671c0,-1.58314 -1.28357,-2.86671 -2.86671,-2.86671h-54.73346c-1.58314,0 -2.86671,1.28357 -2.86671,2.86671c0,1.58314 1.28357,2.86671 2.86671,2.86671z" fill="#000000"></path>
                                    <path d="M35.42793,28.30379h-1.74547c-1.58314,0 -2.86671,1.28357 -2.86671,2.86671c0,1.58314 1.28357,2.86671 2.86671,2.86671h1.74547c1.58314,0 2.86671,-1.28357 2.86671,-2.86671c0,-1.58314 -1.28357,-2.86671 -2.86671,-2.86671z" fill="#000000"></path>
                                    <path d="M52.05022,80.26299h79.81721c1.58314,0 2.86671,-1.28357 2.86671,-2.86671c0,-1.58314 -1.28357,-2.86671 -2.86671,-2.86671h-79.81721c-1.58314,0 -2.86671,1.28357 -2.86671,2.86671c0,1.58314 1.28357,2.86671 2.86671,2.86671z" fill="#000000"></path>
                                    <path d="M35.42793,74.52956h-1.74547c-1.58314,0 -2.86671,1.28357 -2.86671,2.86671c0,1.58314 1.28357,2.86671 2.86671,2.86671h1.74547c1.58314,0 2.86671,-1.28357 2.86671,-2.86671c0,-1.58314 -1.28357,-2.86671 -2.86671,-2.86671z" fill="#000000"></path>
                                    <path d="M154.72625,126.26408c7.4445,-1.00478 13.25999,-6.81705 14.23395,-14.31924c4.05353,-31.22497 4.05282,-62.89213 -0.00215,-94.12248c-0.99726,-7.67885 -7.07792,-13.58894 -14.78795,-14.37227c-45.23389,-4.59678 -91.10598,-4.59678 -136.3413,0c-7.70967,0.78333 -13.7914,6.69951 -14.78938,14.38768c-4.05353,31.22497 -4.05282,62.89213 0.00215,94.12248c0.9969,7.67885 7.07792,13.58894 14.78795,14.37263c3.49058,0.3544 7.06287,0.68837 10.65701,0.99511c-0.81988,3.68731 -2.37221,7.08437 -4.50182,10.0421c-3.96825,5.51198 0.22002,13.15714 6.95859,12.68449c12.70564,-0.87757 23.50348,-8.64959 28.34177,-20.79945c12.75365,0.5049 25.66247,0.64967 38.40394,0.42893c1.58278,-0.02759 2.84414,-1.33302 2.81655,-2.91617c-0.02723,-1.58278 -1.33661,-2.85381 -2.91617,-2.81655c-13.32592,0.23077 -26.83782,0.05913 -40.15873,-0.51099c-1.28142,-0.06737 -2.44423,0.74893 -2.84557,1.96764c-3.61851,10.99277 -12.85184,18.15383 -24.03704,18.92641c-1.91425,0.13724 -3.03155,-2.05794 -1.91031,-3.61529c3.21395,-4.46455 5.37151,-9.79735 6.03336,-15.66982c0.18132,-1.60679 -1.00371,-3.04732 -2.61731,-3.17811c-4.59857,-0.37231 -9.18925,-0.7905 -13.64449,-1.24308c-5.04793,-0.5135 -9.02943,-4.38177 -9.68197,-9.40712c-3.99154,-30.7405 -3.99226,-61.911 -0.00215,-92.64576c0.65361,-5.03467 4.63548,-8.90903 9.6834,-9.42217c44.85046,-4.55772 90.33196,-4.55772 135.18207,0c5.04793,0.51314 9.02908,4.38141 9.68161,9.40677c3.99154,30.7405 3.99226,61.911 0.00215,92.64576c-0.60559,4.66486 -4.07038,8.32816 -8.59083,9.25017c-4.77057,-4.30151 -10.71542,-6.88979 -17.08311,-7.45991v-4.06643h2.15004c1.58314,0 2.86671,-1.28357 2.86671,-2.86671c0,-1.58314 -1.28357,-2.86671 -2.86671,-2.86671h-10.0335c-1.58314,0 -2.86671,1.28357 -2.86671,2.86671c0,1.58314 1.28357,2.86671 2.86671,2.86671h2.15004v4.09833c-5.93374,0.61025 -11.35219,2.98246 -15.72321,6.58341l-3.75002,-3.75002c-1.11945,-1.11909 -2.93444,-1.11909 -4.05389,0c-1.11981,1.11981 -1.11981,2.93444 0,4.05425l3.75002,3.75002c-4.2087,5.10849 -6.73965,11.64854 -6.73965,18.7691c0,16.30086 13.26178,29.56299 29.56299,29.56299c17.93667,0 31.90259,-15.97333 29.24228,-33.929c-0.23185,-1.5663 -1.69029,-2.64669 -3.25551,-2.41592c-1.5663,0.23185 -2.64777,1.68993 -2.41592,3.25587c2.14968,14.51418 -9.14159,27.35562 -23.57084,27.35562c-13.13959,0 -23.82956,-10.68998 -23.82956,-23.82956c0,-13.13959 10.68998,-23.82956 23.82956,-23.82956c6.36518,0 12.34909,2.47863 16.85019,6.97973c0.80161,0.80125 1.95868,1.02557 2.96275,0.67941z" fill="#000000"></path>
                                    <path d="M123.44467,133.58495c-1.42332,-0.69195 -3.13941,-0.09783 -3.83101,1.32621c-0.69159,1.4244 -0.09783,3.13941 1.32621,3.83101l12.54188,6.09177c1.42655,0.69303 3.14049,0.09532 3.83101,-1.32621c0.69159,-1.4244 0.09783,-3.13941 -1.32621,-3.83101z" fill="#000000"></path>
                                </g>
                            </g>
                        </svg>