<svg xmlns="http://www.w3.org/2000/svg" x="0px" y="0px" width="25" height="25" viewBox="0 0 172 172" style=" fill:#000000;" class="inline-block mb-1">
                            <g fill="none" fill-rule="nonzero" stroke="none" stroke-width="1" stroke-linecap="butt" stroke-linejoin="miter" stroke-miterlimit="10" stroke-dasharray="" stroke-dashoffset="0" font-family="none" font-weight="none" font-size="none" text-anchor="none" style="mix-blend-mode: normal">
                                <path d="M0,172v-172h172v172z" fill="none"></path>
                                <g>
                                    <path d="M56.4375,75.7875c-0.30234,-0.87344 -0.63828,-2.85547 -1.6125,-3.35937c-1.91484,-0.97422 -4.60234,-0.10078 -6.65156,-0.10078c-2.18359,0 -3.86328,-1.00781 -4.40078,-3.225c-0.40312,-1.64609 -0.57109,-3.32578 -0.97422,-4.93828c-0.30234,-1.14219 -0.63828,-2.25078 -0.97422,-3.39297c-1.34375,0.06719 -2.6875,0.06719 -4.03125,0.26875c-1.54531,0.23516 -2.35156,0.73906 -2.15,2.35156c0.16797,1.41094 0.43672,2.78828 0.47031,4.19922c0.03359,0.94063 -0.23516,2.75469 0.20156,3.59453c0.57109,1.075 0.03359,2.15 -0.77266,2.65391c-0.26875,0.43672 -0.67187,0.77266 -1.27656,0.90703c-1.71328,0.33594 -3.39297,1.31016 -4.93828,2.08281c-1.27656,0.67188 -2.85547,1.17578 -3.96406,2.15c0,0 -0.06719,0.06719 -0.06719,0.16797c0.16797,0.5375 0.36953,1.075 0.60469,1.57891c0.67188,1.37734 1.17578,2.58672 2.85547,2.6875c2.88906,0.20156 6.24844,0.10078 8.09609,2.82188c1.41094,2.08281 1.91484,4.63594 2.25078,7.12187c2.48594,0.10078 5.00547,-0.16797 7.35703,-0.94062c0.16797,-3.35937 -0.67187,-7.28984 1.075,-10.24609c0.97422,-1.67969 3.72891,-1.98203 5.44219,-2.31797c1.41094,-0.26875 2.92266,-0.47031 4.33359,-0.83984c-0.13437,-1.075 -0.50391,-2.15 -0.87344,-3.225zM31.24219,82.17031c-2.38516,0 -2.65391,-3.69531 -0.26875,-3.69531c2.35156,0.03359 2.65391,3.69531 0.26875,3.69531zM38.96875,65.0375c-0.50391,0 -0.97422,-0.10078 -1.37734,-0.47031c-0.36953,-0.30234 -0.57109,-0.77266 -0.63828,-1.24297c-0.03359,-0.50391 0.13437,-0.97422 0.47031,-1.37734c0.30234,-0.33594 0.77266,-0.63828 1.24297,-0.63828h0.33594c0.50391,0 0.97422,0.10078 1.37734,0.47031c0.36953,0.30234 0.57109,0.77266 0.63828,1.24297c0.03359,0.50391 -0.13437,1.00781 -0.47031,1.37734c-0.30234,0.33594 -0.77266,0.63828 -1.24297,0.63828zM43.90703,90.3c-0.30234,0.33594 -0.77266,0.63828 -1.24297,0.63828c-0.23516,0 -0.50391,0 -0.73906,-0.03359c-0.43672,-0.06719 -0.73906,-0.23516 -1.075,-0.50391c-0.5375,-0.40313 -0.83984,-1.17578 -0.83984,-1.84766c0,-0.50391 0.10078,-0.97422 0.47031,-1.37734c0.30234,-0.36953 0.77266,-0.57109 1.24297,-0.63828c0.50391,-0.03359 1.00781,0.13437 1.37734,0.47031c0.13437,0.13437 0.26875,0.30234 0.36953,0.47031c0.10078,0.06719 0.20156,0.13437 0.30234,0.20156c0.36953,0.30234 0.57109,0.77266 0.63828,1.24297c0,0.50391 -0.16797,1.00781 -0.50391,1.37734zM52.64141,76.19063c-0.30234,0.33594 -0.77266,0.63828 -1.24297,0.63828h-0.33594c-0.50391,0 -0.97422,-0.10078 -1.37734,-0.47031c-0.36953,-0.30234 -0.57109,-0.77266 -0.63828,-1.24297c-0.03359,-0.50391 0.13437,-0.97422 0.47031,-1.37734c0.30234,-0.33594 0.77266,-0.63828 1.24297,-0.63828h0.33594c0.50391,0 0.97422,0.10078 1.37734,0.47031c0.36953,0.30234 0.57109,0.77266 0.63828,1.24297c0.03359,0.50391 -0.13438,1.00781 -0.47031,1.37734z" fill="#febf10"></path>
                                    <path d="M128.19375,65.84375c-2.28437,-0.40313 -3.93047,1.88125 -3.89687,3.96406c0.03359,0.63828 -0.23516,1.14219 -0.63828,1.47813c0.40312,0.16797 0.94062,0.30234 1.41094,0.36953c1.37734,0.16797 3.35938,0 4.3,-1.10859c1.00781,-1.17578 0.70547,-4.36719 -1.17578,-4.70312z" fill="#f6851f"></path>
                                    <path d="M91.97969,41.89141c-0.94062,-0.77266 -2.11641,-0.87344 -3.29219,-0.83984c-2.31797,0.06719 -4.60234,0.13437 -6.88672,0.13437c-2.75469,0 -7.15547,-0.06719 -8.53281,2.6875c0.23516,0.40312 0.30234,0.90703 0.23516,1.34375c5.61016,0.10078 11.22031,0.13437 16.86406,-0.13438c0.90703,-0.03359 1.84766,-0.10078 2.75469,-0.16797c0.03359,-0.10078 0.10078,-0.23516 0.16797,-0.33594c0.43672,-0.77266 -0.73906,-2.21719 -1.31016,-2.6875z" fill="#80aaff"></path>
                                    <path d="M114.99141,81.76719c-2.31797,-0.23516 -3.82969,1.6125 -3.7625,3.79609c0,0.63828 -0.23516,1.14219 -0.63828,1.44453c0.57109,0.47031 1.27656,0.80625 2.08281,0.97422c1.67969,0.33594 3.93047,0.16797 4.66953,-1.67969c0.80625,-1.98203 -0.06719,-4.3 -2.35156,-4.53516z" fill="#f6851f"></path>
                                    <path d="M162.39219,114.55469c-0.87344,-5.17344 -1.94844,-10.34687 -3.12422,-15.48672c-3.62813,-15.78906 -7.65938,-34.29922 -21.29844,-44.67969c-7.42422,-5.64375 -16.36016,-7.22266 -25.53125,-6.95391c-5.30781,0.16797 -10.61563,0.70547 -15.92344,1.04141c-5.40859,0.30234 -10.78359,0.5375 -16.19219,0.57109c-10.64922,0.06719 -21.39922,-1.17578 -32.01484,-0.16797c-5.07266,0.50391 -10.04453,1.51172 -14.74766,3.52734c-4.40078,1.88125 -8.46562,4.33359 -12.46328,6.95391c-0.13437,0.10078 -0.30234,0.16797 -0.43672,0.20156c-2.15,3.86328 -3.86328,7.86094 -4.87109,12.16094c-2.31797,9.675 -2.31797,19.71953 -4.60234,29.39453c-1.44453,6.04688 -3.46016,11.95938 -4.77031,18.03984c-1.31016,6.11406 -2.48594,12.9 -0.94063,19.08125c1.44453,5.74453 5.61016,10.38047 11.65703,11.42188c5.50938,0.94063 10.14531,-2.51953 13.53828,-6.51719c3.99766,-4.73672 6.88672,-10.27969 9.54062,-15.82266c2.65391,-5.57656 4.87109,-11.75781 9.10391,-16.39375c6.18125,-6.71875 15.18438,-7.86094 23.88516,-7.92813c9.57422,-0.06719 19.75313,0.50391 29.025,3.12422c4.43438,1.24297 8.63359,3.09063 12.26172,5.97969c3.59453,2.85547 6.61797,6.31562 9.50703,9.84297c4.26641,5.13984 8.49922,10.07813 13.87422,14.14297c4.23281,3.19141 9.77578,6.9875 15.31875,6.95391c6.9875,-0.06719 9.40625,-7.18906 10.04453,-13.13516c0.5375,-5.10625 0,-10.27969 -0.83984,-15.35234zM59.93125,82.06953c-1.67969,0.67188 -3.56094,0.90703 -5.34141,1.24297c-0.94063,0.16797 -1.88125,0.33594 -2.78828,0.60469c-0.40312,0.10078 -0.77266,0.23516 -1.14219,0.40313c-1.14219,2.98984 -0.23516,6.68516 -0.60469,9.80938c-0.06719,0.67188 -0.63828,1.14219 -1.20938,1.37734c-3.66172,1.54531 -7.79375,1.74688 -11.72422,1.41094c-0.83984,-0.06719 -1.41094,-0.90703 -1.47813,-1.67969c-0.33594,-2.85547 -0.47031,-7.42422 -3.99766,-7.96172c-1.67969,-0.26875 -3.42656,0 -5.07266,-0.57109c-1.71328,-0.60469 -2.72109,-1.98203 -3.52734,-3.56094c-1.31016,-2.55313 -2.35156,-5.44219 0.50391,-7.39062c1.54531,-1.04141 3.35938,-1.78047 5.03906,-2.62031c1.34375,-0.67187 2.65391,-1.27656 4.06484,-1.71328c-0.23516,-1.27656 -0.13438,-2.65391 -0.23516,-3.96406c-0.10078,-1.88125 -0.83984,-3.96406 -0.40313,-5.84531c1.20938,-5.03906 7.08828,-4.16562 11.01875,-4.63594c0.77266,-0.10078 1.67969,0.47031 1.88125,1.24297c0.57109,1.94844 1.20937,3.86328 1.6125,5.84531c0.30234,1.41094 0.33594,3.09062 0.90703,4.43437c0.03359,0.03359 0.03359,0.10078 0.06719,0.13438c0.30234,0.03359 0.63828,0.03359 0.97422,0c1.31016,-0.10078 2.62031,-0.23516 3.96406,-0.23516c2.35156,0.03359 4.73672,0.40313 6.01328,2.65391c1.47812,2.62031 2.6875,6.11406 2.6875,9.1375c0.03359,0.87344 -0.40312,1.57891 -1.20937,1.88125zM103.97266,72.26016c-0.33594,4.13203 -1.14219,8.76797 -4.40078,11.69062c-2.78828,2.48594 -6.58438,3.15781 -10.2125,2.95625c-0.36953,-0.03359 -0.70547,-0.13438 -0.97422,-0.30234c-3.93047,0.06719 -7.89453,0.16797 -11.825,-0.13437c-2.58672,-0.20156 -5.17344,-1.075 -6.48359,-3.46016c-0.87344,-1.57891 -1.27656,-3.225 -1.74688,-4.93828c-0.63828,-2.35156 -1.34375,-4.70312 -1.84766,-7.12187c-0.40312,-1.84766 -0.87344,-3.69531 -1.27656,-5.54297c-0.33594,-1.51172 -0.5375,-3.05703 0,-4.53516c0,-0.10078 0.03359,-0.23516 0.03359,-0.36953c0.06719,-0.30234 0.16797,-0.60469 0.26875,-0.90703c1.81406,-4.90469 9.37266,-4.93828 13.60547,-4.87109c5.24062,0.10078 10.41406,0.87344 15.5875,1.67969c2.85547,0.43672 6.31563,0.97422 8.0625,3.59453c1.00781,1.51172 1.41094,3.29219 1.41094,5.07266c0,2.38516 0,4.80391 -0.20156,7.18906zM120.73594,87.71328c-1.44453,3.59453 -5.77812,4.8375 -9.27188,3.79609c-3.09062,-0.90703 -6.51719,-3.7625 -4.43437,-7.28984c0.20156,-0.33594 0.47031,-0.57109 0.77266,-0.73906c0.90703,-3.42656 3.96406,-5.94609 7.89453,-5.34141c4.53516,0.67187 6.68516,5.44219 5.03906,9.57422zM124.39766,75.25c-2.72109,-0.40313 -6.11406,-2.41875 -5.07266,-5.67734c0.23516,-0.77266 0.83984,-1.20937 1.47812,-1.34375c0.73906,-3.56094 3.89688,-6.81953 7.82734,-6.08047c3.96406,0.73906 6.41641,6.11406 4.33359,9.675c-1.71328,2.92266 -5.34141,3.93047 -8.56641,3.42656zM149.02188,86.30234c-1.00781,4.43438 -5.34141,6.61797 -9.64141,6.24844c-4.16562,-0.36953 -7.65938,-3.42656 -6.95391,-7.86094c0.13437,-0.87344 0.70547,-1.31016 1.37734,-1.41094c0.60469,-3.59453 4.23281,-5.81172 7.99531,-5.71094c4.66953,0.16797 8.33125,3.89687 7.22266,8.73437z" fill="#80aaff"></path>
                                    <path d="M98.73203,61.24141c-2.18359,-1.14219 -4.93828,-1.27656 -7.32344,-1.64609c-4.09844,-0.63828 -8.23047,-1.17578 -12.3625,-1.20937c-2.28437,0 -4.70312,0 -6.92031,0.60469c-0.87344,0.23516 -1.74688,0.50391 -2.48594,1.04141c-0.40312,0.30234 -0.63828,0.63828 -0.73906,1.00781c0.03359,0.30234 -0.03359,0.60469 -0.20156,0.94063c-0.60469,1.20938 0.16797,3.05703 0.50391,4.26641c0.47031,1.71328 0.73906,3.49375 1.17578,5.24062c0.50391,1.98203 1.075,3.96406 1.6125,5.94609c0.33594,1.24297 0.57109,2.65391 1.31016,3.72891c1.10859,1.64609 3.225,1.64609 5.03906,1.67969c4.13203,0.06719 8.26406,0 12.39609,0c0.43672,0 0.77266,0.13438 1.075,0.30234c2.21719,-0.16797 4.40078,-0.83984 5.84531,-2.55312c2.41875,-2.88906 2.6875,-7.42422 2.78828,-11.01875c0.03359,-2.31797 0.94063,-6.95391 -1.71328,-8.33125z" fill="#bcbcbc"></path>
                                    <path d="M87.17578,37.0875c-0.77266,-0.57109 -1.81406,-0.97422 -2.82188,-1.14219c-1.81406,-0.30234 -3.42656,-0.03359 -3.93047,1.57891c0.83984,-0.03359 1.64609,-0.03359 2.41875,-0.03359c1.34375,0 2.92266,-0.16797 4.50156,-0.26875c-0.03359,-0.03359 -0.10078,-0.10078 -0.16797,-0.13438z" fill="#80aaff"></path>
                                    <path d="M141.76563,81.22969c-2.28438,0 -4.66953,1.00781 -4.36719,3.66172c0.13438,1.04141 -0.50391,1.64609 -1.27656,1.84766c1.075,3.225 8.36484,2.78828 9.20469,-0.87344c0.57109,-2.55313 -0.77266,-4.63594 -3.56094,-4.63594z" fill="#f6851f"></path>
                                    <path d="M163.56797,101.62109c-1.98203,-9.33906 -4.13203,-18.84609 -7.62578,-27.74844c-2.82187,-7.12188 -6.71875,-13.87422 -12.16094,-19.31641c-5.84531,-5.81172 -13.50469,-9.33906 -21.63437,-10.41406c-8.26406,-1.075 -16.69609,-0.20156 -25.02734,0.47031c0.23516,-2.58672 -2.01562,-5.27422 -4.06484,-6.48359c-0.50391,-0.30234 -1.00781,-0.50391 -1.57891,-0.63828c-0.13437,-2.35156 -3.15781,-4.46797 -6.41641,-5.13984c-0.03359,-0.10078 -0.06719,-0.23516 -0.13438,-0.36953c-1.57891,-3.29219 3.66172,-6.95391 6.18125,-7.99531c4.36719,-1.81406 9.17109,-1.14219 13.63906,-0.23516c2.55313,0.5375 5.00547,1.14219 7.62578,1.24297c2.78828,0.13438 5.34141,-0.90703 7.76016,-2.18359c1.98203,-1.075 3.99766,-2.58672 5.24063,-4.50156c0.47031,-0.73906 0.87344,-1.64609 1.31016,-2.48594c0.60469,0.20156 1.34375,0.13437 1.88125,-0.50391c1.14219,-1.31016 1.54531,-2.78828 0.47031,-4.26641c-0.60469,-0.87344 -1.67969,-1.00781 -2.55312,-0.50391c-1.78047,1.04141 -2.6875,2.88906 -3.59453,4.66953c-1.24297,2.41875 -3.56094,3.96406 -6.01328,5.07266c-5.30781,2.45234 -11.22031,-0.5375 -16.6625,-1.04141c-4.70312,-0.47031 -9.80937,0.23516 -13.70625,3.05703c-2.92266,2.08281 -6.48359,6.11406 -5.40859,9.94375c-2.31797,0.50391 -4.19922,2.11641 -4.43438,5.34141c0,0.06719 0,0.16797 0,0.23516c-3.59453,0.67188 -6.78594,2.35156 -7.39062,6.48359c-0.03359,0.26875 -0.03359,0.50391 0.03359,0.73906c-3.69531,-0.10078 -7.39062,-0.20156 -11.08594,-0.23516c-7.28984,-0.10078 -14.61328,0.40312 -21.60078,2.51953c-5.67734,1.71328 -10.88437,4.66953 -15.85625,7.82734c-0.80625,-0.30234 -1.81406,-0.13438 -2.35156,0.80625c-2.41875,4.26641 -4.40078,8.63359 -5.77813,13.33672c-1.34375,4.70313 -1.98203,9.60781 -2.55313,14.47891c-0.60469,4.97187 -1.10859,9.94375 -2.11641,14.84844c-0.63828,3.15781 -1.57891,6.28203 -2.45234,9.37266c-1.81406,6.31562 -3.49375,12.66484 -4.09844,19.21562c-0.60469,6.14766 -0.26875,12.69844 3.02344,18.07344c3.12422,5.10625 9.47344,8.43203 15.41953,8.19688c5.77813,-0.20156 10.58203,-4.26641 14.07578,-8.49922c3.99766,-4.80391 6.92031,-10.44766 9.60781,-16.05781c2.65391,-5.57656 4.8375,-11.69062 9.17109,-16.22578c6.34922,-6.61797 17.23359,-6.24844 25.69922,-5.97969c4.93828,0.16797 9.87656,0.60469 14.78125,1.31016c4.66953,0.67188 9.33906,1.64609 13.63906,3.59453c8.53281,3.86328 13.80703,12.29531 19.82031,19.08125c3.79609,4.33359 8.33125,8.0625 13.20234,11.15312c4.56875,2.92266 10.41406,5.67734 15.99062,4.56875c6.95391,-1.37734 9.87656,-8.33125 10.88438,-14.68047c1.54531,-9.94375 -1.075,-20.35781 -3.15781,-30.13359zM84.35391,35.94531c0.97422,0.16797 2.04922,0.57109 2.82188,1.14219c0.06719,0.03359 0.13437,0.10078 0.16797,0.16797c-1.57891,0.06719 -3.15781,0.26875 -4.50156,0.26875c-0.77266,0 -1.57891,0 -2.41875,0.03359c0.50391,-1.64609 2.11641,-1.91484 3.93047,-1.6125zM81.80078,41.18594c2.31797,0 4.60234,-0.10078 6.88672,-0.13438c1.17578,-0.03359 2.35156,0.06719 3.29219,0.83984c0.57109,0.47031 1.74688,1.91484 1.27656,2.6875c-0.06719,0.10078 -0.13437,0.23516 -0.16797,0.33594c-0.90703,0.06719 -1.84766,0.10078 -2.75469,0.16797c-5.64375,0.26875 -11.25391,0.23516 -16.86406,0.13438c0.06719,-0.43672 -0.03359,-0.94063 -0.23516,-1.34375c1.41094,-2.75469 5.81172,-2.6875 8.56641,-2.6875zM163.23203,129.90703c-0.63828,5.9125 -3.05703,13.06797 -10.04453,13.13516c-5.54297,0.03359 -11.08594,-3.7625 -15.31875,-6.95391c-5.34141,-4.06484 -9.60781,-8.96953 -13.87422,-14.14297c-2.92266,-3.52734 -5.94609,-6.9875 -9.50703,-9.84297c-3.62812,-2.88906 -7.82734,-4.73672 -12.26172,-5.97969c-9.27188,-2.62031 -19.45078,-3.19141 -29.025,-3.12422c-8.70078,0.06719 -17.70391,1.20938 -23.88516,7.92813c-4.23281,4.60234 -6.45,10.81719 -9.10391,16.39375c-2.65391,5.54297 -5.54297,11.11953 -9.54063,15.82266c-3.39297,3.99766 -8.02891,7.45781 -13.53828,6.51719c-6.01328,-1.04141 -10.2125,-5.67734 -11.65703,-11.42187c-1.54531,-6.18125 -0.36953,-13.00078 0.94063,-19.08125c1.31016,-6.08047 3.32578,-11.99297 4.77031,-18.03984c2.28437,-9.675 2.28437,-19.71953 4.60234,-29.39453c1.04141,-4.3 2.75469,-8.29766 4.80391,-12.16094c0.13437,-0.06719 0.30234,-0.13438 0.43672,-0.20156c3.99766,-2.58672 8.0625,-5.07266 12.46328,-6.95391c4.70313,-2.01562 9.675,-3.02344 14.74766,-3.52734c10.61562,-1.04141 21.36563,0.23516 32.01484,0.16797c5.40859,-0.03359 10.81719,-0.26875 16.19219,-0.57109c5.30781,-0.30234 10.58203,-0.87344 15.92344,-1.04141c9.17109,-0.26875 18.10703,1.31016 25.53125,6.95391c13.67266,10.38047 17.70391,28.89062 21.29844,44.67969c1.17578,5.13984 2.25078,10.31328 3.12422,15.48672c0.90703,5.07266 1.44453,10.24609 0.90703,15.35234z" fill="#000000"></path>
                                    <path d="M58.45313,71.05078c-1.27656,-2.25078 -3.66172,-2.62031 -6.01328,-2.65391c-1.34375,0 -2.62031,0.10078 -3.96406,0.23516c-0.33594,0.03359 -0.67187,0.03359 -0.97422,0c-0.03359,-0.03359 -0.03359,-0.06719 -0.06719,-0.13438c-0.60469,-1.34375 -0.60469,-2.98984 -0.90703,-4.43437c-0.43672,-1.98203 -1.075,-3.93047 -1.6125,-5.84531c-0.23516,-0.77266 -1.10859,-1.34375 -1.88125,-1.24297c-3.93047,0.47031 -9.84297,-0.40313 -11.01875,4.63594c-0.43672,1.88125 0.30234,3.96406 0.40313,5.84531c0.06719,1.31016 0,2.65391 0.23516,3.96406c-1.41094,0.43672 -2.72109,1.04141 -4.06484,1.71328c-1.67969,0.83984 -3.49375,1.57891 -5.03906,2.62031c-2.85547,1.94844 -1.78047,4.87109 -0.50391,7.39063c0.80625,1.54531 1.78047,2.95625 3.52734,3.56094c1.64609,0.57109 3.39297,0.33594 5.07266,0.57109c3.52734,0.5375 3.66172,5.10625 3.99766,7.96172c0.10078,0.73906 0.67188,1.6125 1.47813,1.67969c3.93047,0.33594 8.0625,0.13437 11.72422,-1.41094c0.57109,-0.23516 1.10859,-0.73906 1.20938,-1.37734c0.36953,-3.12422 -0.5375,-6.81953 0.60469,-9.80938c0.36953,-0.16797 0.77266,-0.26875 1.14219,-0.40313c0.90703,-0.26875 1.84766,-0.43672 2.78828,-0.60469c1.78047,-0.33594 3.62813,-0.57109 5.34141,-1.24297c0.80625,-0.33594 1.24297,-1.00781 1.24297,-1.88125c0,-3.02344 -1.24297,-6.51719 -2.72109,-9.1375zM53.04453,79.88594c-1.71328,0.33594 -4.46797,0.67188 -5.44219,2.31797c-1.74687,2.95625 -0.90703,6.88672 -1.075,10.24609c-2.35156,0.77266 -4.87109,1.04141 -7.35703,0.94062c-0.33594,-2.48594 -0.83984,-5.03906 -2.25078,-7.12187c-1.84766,-2.72109 -5.20703,-2.62031 -8.09609,-2.82188c-1.64609,-0.13438 -2.18359,-1.34375 -2.85547,-2.6875c-0.23516,-0.50391 -0.47031,-1.04141 -0.60469,-1.57891c-0.03359,-0.10078 0.03359,-0.16797 0.06719,-0.16797c1.10859,-0.97422 2.65391,-1.47813 3.96406,-2.15c1.54531,-0.80625 3.225,-1.74688 4.93828,-2.08281c0.60469,-0.13437 1.04141,-0.47031 1.27656,-0.90703c0.80625,-0.50391 1.34375,-1.57891 0.77266,-2.65391c-0.43672,-0.83984 -0.16797,-2.65391 -0.20156,-3.59453c-0.03359,-1.41094 -0.30234,-2.78828 -0.47031,-4.19922c-0.16797,-1.6125 0.63828,-2.11641 2.15,-2.35156c1.34375,-0.20156 2.6875,-0.20156 4.03125,-0.26875c0.33594,1.14219 0.67188,2.25078 0.97422,3.39297c0.43672,1.64609 0.57109,3.32578 0.97422,4.93828c0.57109,2.21719 2.21719,3.225 4.40078,3.225c2.04922,0 4.70313,-0.90703 6.65156,0.10078c0.97422,0.50391 1.27656,2.48594 1.6125,3.35938c0.36953,1.075 0.73906,2.15 0.90703,3.25859c-1.47813,0.33594 -2.95625,0.50391 -4.36719,0.80625z" fill="#000000"></path>
                                    <path d="M40.37969,61.8125c-0.40313,-0.33594 -0.83984,-0.47031 -1.37734,-0.47031h-0.33594c-0.47031,0 -0.94062,0.30234 -1.24297,0.63828c-0.33594,0.36953 -0.50391,0.87344 -0.47031,1.37734c0.03359,0.47031 0.26875,0.94063 0.63828,1.24297c0.40313,0.33594 0.83984,0.47031 1.37734,0.47031h0.33594c0.47031,0 0.94062,-0.30234 1.24297,-0.63828c0.33594,-0.36953 0.50391,-0.87344 0.47031,-1.37734c-0.06719,-0.47031 -0.26875,-0.90703 -0.63828,-1.24297zM52.47344,73.57031c-0.40312,-0.33594 -0.83984,-0.47031 -1.37734,-0.47031h-0.33594c-0.47031,0 -0.94063,0.30234 -1.24297,0.63828c-0.33594,0.36953 -0.50391,0.87344 -0.47031,1.37734c0.03359,0.47031 0.26875,0.94063 0.63828,1.24297c0.40313,0.33594 0.83984,0.47031 1.37734,0.47031h0.33594c0.47031,0 0.94063,-0.30234 1.24297,-0.63828c0.33594,-0.36953 0.50391,-0.87344 0.47031,-1.37734c-0.06719,-0.47031 -0.26875,-0.90703 -0.63828,-1.24297zM43.73906,87.67969c-0.10078,-0.06719 -0.20156,-0.13437 -0.30234,-0.20156c-0.10078,-0.16797 -0.23516,-0.33594 -0.36953,-0.47031c-0.36953,-0.33594 -0.87344,-0.50391 -1.37734,-0.47031c-0.47031,0.03359 -0.94063,0.26875 -1.24297,0.63828c-0.33594,0.40313 -0.47031,0.83984 -0.47031,1.37734c0,0.63828 0.26875,1.44453 0.83984,1.84766c0.33594,0.23516 0.63828,0.43672 1.075,0.50391c0.23516,0.03359 0.50391,0.03359 0.73906,0.03359c0.47031,0 0.94062,-0.30234 1.24297,-0.63828c0.33594,-0.36953 0.50391,-0.87344 0.47031,-1.37734c-0.03359,-0.47031 -0.23516,-0.90703 -0.60469,-1.24297zM30.93984,78.50859c-2.38516,0 -2.08281,3.69531 0.26875,3.69531c2.41875,-0.03359 2.11641,-3.69531 -0.26875,-3.69531zM128.63047,62.14844c-3.93047,-0.73906 -7.05469,2.51953 -7.82734,6.08047c-0.63828,0.13438 -1.24297,0.57109 -1.47812,1.34375c-1.04141,3.25859 2.35156,5.24063 5.07266,5.67734c3.225,0.50391 6.85312,-0.47031 8.56641,-3.42656c2.08281,-3.56094 -0.36953,-8.93594 -4.33359,-9.675zM129.40312,70.51328c-0.94062,1.10859 -2.92266,1.27656 -4.3,1.10859c-0.47031,-0.06719 -1.00781,-0.20156 -1.41094,-0.36953c0.40312,-0.33594 0.67188,-0.80625 0.63828,-1.47813c-0.06719,-2.04922 1.6125,-4.36719 3.89687,-3.96406c1.84766,0.36953 2.15,3.56094 1.17578,4.70313zM115.69688,78.13906c-3.89688,-0.60469 -6.95391,1.91484 -7.89453,5.34141c-0.30234,0.13438 -0.57109,0.40313 -0.77266,0.73906c-2.08281,3.52734 1.34375,6.34922 4.43437,7.28984c3.49375,1.04141 7.82734,-0.20156 9.27188,-3.79609c1.64609,-4.13203 -0.50391,-8.90234 -5.03906,-9.57422zM117.34297,86.33594c-0.73906,1.84766 -2.98984,2.01563 -4.66953,1.67969c-0.80625,-0.16797 -1.51172,-0.47031 -2.08281,-0.97422c0.40312,-0.33594 0.63828,-0.80625 0.63828,-1.44453c-0.03359,-2.18359 1.44453,-4.03125 3.7625,-3.79609c2.28438,0.20156 3.15781,2.51953 2.35156,4.53516zM141.76563,77.56797c-3.7625,-0.13438 -7.35703,2.08281 -7.99531,5.71094c-0.63828,0.10078 -1.24297,0.57109 -1.37734,1.41094c-0.67187,4.43438 2.78828,7.45781 6.95391,7.86094c4.3,0.40313 8.66719,-1.78047 9.64141,-6.24844c1.14219,-4.8375 -2.51953,-8.56641 -7.22266,-8.73437zM145.32656,85.89922c-0.80625,3.66172 -8.12969,4.09844 -9.20469,0.87344c0.77266,-0.20156 1.41094,-0.83984 1.27656,-1.84766c-0.30234,-2.65391 2.04922,-3.66172 4.36719,-3.66172c2.78828,-0.03359 4.13203,2.04922 3.56094,4.63594zM102.76328,59.99844c-1.74687,-2.62031 -5.20703,-3.12422 -8.0625,-3.59453c-5.17344,-0.80625 -10.34687,-1.57891 -15.5875,-1.67969c-4.23281,-0.10078 -11.79141,-0.03359 -13.60547,4.87109c-0.10078,0.30234 -0.20156,0.60469 -0.26875,0.90703c-0.03359,0.13437 -0.03359,0.23516 -0.03359,0.36953c-0.5375,1.44453 -0.33594,3.02344 0,4.53516c0.43672,1.84766 0.87344,3.69531 1.27656,5.54297c0.5375,2.38516 1.20937,4.73672 1.84766,7.12187c0.47031,1.71328 0.87344,3.35938 1.74688,4.93828c1.31016,2.38516 3.93047,3.25859 6.48359,3.46016c3.89687,0.30234 7.89453,0.16797 11.825,0.13437c0.26875,0.16797 0.60469,0.30234 0.97422,0.30234c3.62812,0.20156 7.39063,-0.47031 10.2125,-2.95625c3.25859,-2.88906 4.06484,-7.525 4.40078,-11.69063c0.20156,-2.38516 0.20156,-4.77031 0.20156,-7.15547c0,-1.81406 -0.40313,-3.59453 -1.41094,-5.10625zM100.44531,69.60625c-0.10078,3.62812 -0.33594,8.12969 -2.78828,11.01875c-1.44453,1.71328 -3.62813,2.38516 -5.84531,2.55312c-0.30234,-0.20156 -0.63828,-0.30234 -1.075,-0.30234c-4.13203,0 -8.26406,0.03359 -12.39609,0c-1.81406,-0.03359 -3.93047,-0.03359 -5.03906,-1.67969c-0.73906,-1.075 -0.97422,-2.48594 -1.31016,-3.72891c-0.5375,-1.98203 -1.10859,-3.96406 -1.6125,-5.94609c-0.43672,-1.74688 -0.70547,-3.49375 -1.17578,-5.24063c-0.33594,-1.20937 -1.10859,-3.05703 -0.50391,-4.26641c0.16797,-0.33594 0.23516,-0.67187 0.20156,-0.94063c0.10078,-0.36953 0.33594,-0.67187 0.73906,-1.00781c0.70547,-0.5375 1.6125,-0.80625 2.48594,-1.04141c2.21719,-0.60469 4.63594,-0.60469 6.92031,-0.60469c4.13203,0.03359 8.29766,0.57109 12.3625,1.20938c2.38516,0.36953 5.13984,0.50391 7.32344,1.64609c2.65391,1.34375 1.74688,5.97969 1.71328,8.33125z" fill="#000000"></path>
                                </g>
                            </g>
                        </svg>