<svg xmlns="http://www.w3.org/2000/svg" x="0px" y="0px" width="25" height="25" viewBox="0 0 172 172" style=" fill:#000000;" class="inline-block mb-1">
                            <g fill="none" fill-rule="nonzero" stroke="none" stroke-width="1" stroke-linecap="butt" stroke-linejoin="miter" stroke-miterlimit="10" stroke-dasharray="" stroke-dashoffset="0" font-family="none" font-weight="none" font-size="none" text-anchor="none" style="mix-blend-mode: normal">
                                <path d="M0,172v-172h172v172z" fill="none"></path>
                                <g>
                                    <path d="M102.15859,108.13828c-0.60469,-2.85547 -1.37734,-5.67734 -2.35156,-8.43203c-1.71328,0.63828 -3.39297,1.27656 -5.10625,1.84766c-14.27734,4.93828 -29.29375,9.47344 -44.47812,10.44766c-11.69062,0.77266 -24.96016,-0.73906 -33.325,-9.40625c1.81406,11.79141 6.85312,23.04531 14.68047,32.38437c0.97422,1.17578 2.01562,2.31797 3.09062,3.42656c0,0 0,-0.03359 0.03359,-0.03359c0.30234,-0.36953 0.77266,-0.57109 1.24297,-0.63828c0.50391,-0.03359 0.97422,0.13438 1.37734,0.47031c0.33594,0.30234 0.63828,0.77266 0.63828,1.24297v0.50391c0,0.47031 -0.10078,0.87344 -0.36953,1.24297c2.41875,2.21719 5.03906,4.26641 7.76016,6.08047c-0.03359,-0.50391 0.13438,-0.97422 0.47031,-1.34375c0.30234,-0.33594 0.77266,-0.63828 1.24297,-0.63828h0.50391c0.50391,0 0.97422,0.10078 1.37734,0.47031c0.36953,0.30234 0.57109,0.77266 0.63828,1.24297c0.03359,0.50391 -0.13438,0.97422 -0.47031,1.37734c-0.23516,0.26875 -0.63828,0.5375 -1.04141,0.60469c0.63828,0.36953 1.24297,0.73906 1.88125,1.075c7.32344,3.93047 15.28516,6.18125 23.51563,7.25625c6.9875,0.90703 14.10938,0.94063 21.09687,0.06719c4.97187,-6.85312 7.525,-14.71406 8.36484,-23.17969c0.80625,-8.70078 1.00781,-17.46875 -0.77266,-26.06875zM24.35547,112.10234c-0.30234,0.33594 -0.77266,0.63828 -1.24297,0.63828h-0.50391c-0.50391,0 -0.97422,-0.10078 -1.37734,-0.47031c-0.36953,-0.30234 -0.57109,-0.77266 -0.63828,-1.24297c-0.03359,-0.50391 0.13437,-0.97422 0.47031,-1.37734c0.30234,-0.33594 0.77266,-0.63828 1.24297,-0.63828h0.5375c0.50391,0 0.97422,0.10078 1.37734,0.47031c0.36953,0.30234 0.57109,0.77266 0.63828,1.24297c0,0.5375 -0.16797,1.00781 -0.50391,1.37734zM28.89063,125.20391c-0.30234,0.36953 -0.77266,0.57109 -1.24297,0.63828c-0.50391,0.03359 -1.00781,-0.13437 -1.37734,-0.47031c-0.10078,-0.10078 -0.23516,-0.23516 -0.30234,-0.36953c-0.06719,-0.03359 -0.13438,-0.10078 -0.20156,-0.13437c-0.36953,-0.30234 -0.57109,-0.77266 -0.63828,-1.24297c-0.03359,-0.50391 0.13437,-0.97422 0.47031,-1.37734c0.30234,-0.33594 0.77266,-0.63828 1.24297,-0.63828c0.26875,0 0.5375,0 0.80625,0.03359c0.30234,0.06719 0.77266,0.23516 1.00781,0.47031c0.30234,0.36953 0.36953,0.36953 0.5375,0.80625c0.06719,0.16797 0.10078,0.36953 0.13438,0.5375c0,0.10078 0,0.20156 0,0.30234c0.03359,0.60469 -0.06719,1.075 -0.43672,1.44453zM32.18281,121.81094c-2.38516,0 -2.65391,-3.69531 -0.26875,-3.69531c2.35156,0 2.65391,3.69531 0.26875,3.69531zM39.97656,129.23516c-0.30234,0.33594 -0.77266,0.63828 -1.24297,0.63828h-0.50391c-0.50391,0 -0.97422,-0.10078 -1.37734,-0.47031c-0.36953,-0.30234 -0.57109,-0.77266 -0.63828,-1.24297c-0.03359,-0.50391 0.13438,-0.97422 0.47031,-1.37734c0.30234,-0.33594 0.77266,-0.63828 1.24297,-0.63828h0.50391c0.50391,0 0.97422,0.10078 1.37734,0.47031c0.36953,0.30234 0.57109,0.77266 0.63828,1.24297c0.03359,0.5375 -0.13437,1.00781 -0.47031,1.37734zM46.96406,130.41094c-0.36953,-0.30234 -0.57109,-0.77266 -0.63828,-1.24297c-0.03359,-0.50391 0.13438,-0.97422 0.47031,-1.37734c0.30234,-0.33594 0.77266,-0.63828 1.24297,-0.63828h0.50391c0.50391,0 0.97422,0.10078 1.37734,0.47031c0.36953,0.30234 0.57109,0.77266 0.63828,1.24297c0.03359,0.50391 -0.13437,1.00781 -0.47031,1.37734c-0.30234,0.33594 -0.77266,0.63828 -1.24297,0.63828h-0.50391c-0.5375,0 -1.00781,-0.10078 -1.37734,-0.47031zM49.81953,139.95156c-2.38516,0 -2.65391,-3.69531 -0.26875,-3.69531c2.35156,0 2.65391,3.69531 0.26875,3.69531zM59.62891,149.89531c-0.30234,0.33594 -0.77266,0.63828 -1.24297,0.63828h-0.50391c-0.50391,0 -0.97422,-0.10078 -1.37734,-0.47031c-0.36953,-0.30234 -0.57109,-0.77266 -0.63828,-1.24297c-0.03359,-0.50391 0.13437,-0.97422 0.47031,-1.37734c0.30234,-0.33594 0.77266,-0.63828 1.24297,-0.63828h0.50391c0.50391,0 0.97422,0.10078 1.37734,0.47031c0.36953,0.30234 0.57109,0.77266 0.63828,1.24297c0.03359,0.5375 -0.13437,1.00781 -0.47031,1.37734zM61.40938,139.44766c-2.38516,0 -2.65391,-3.69531 -0.26875,-3.69531c2.35156,0 2.65391,3.69531 0.26875,3.69531zM70.98359,156.07656c-2.38516,0 -2.65391,-3.69531 -0.26875,-3.69531c2.35156,0 2.65391,3.69531 0.26875,3.69531zM73.20078,146.53594c0,0.50391 -0.10078,0.97422 -0.47031,1.37734c-0.30234,0.36953 -0.77266,0.57109 -1.24297,0.63828c-0.50391,0.03359 -0.97422,-0.13437 -1.37734,-0.47031c-0.33594,-0.30234 -0.63828,-0.77266 -0.63828,-1.24297v-0.50391c0,-0.50391 0.10078,-0.97422 0.47031,-1.37734c0.30234,-0.36953 0.77266,-0.57109 1.24297,-0.63828c0.50391,-0.03359 0.97422,0.13438 1.37734,0.47031c0.33594,0.30234 0.63828,0.77266 0.63828,1.24297zM79.68438,155.90859c-0.06719,0.30234 -0.23516,0.77266 -0.47031,1.00781c-0.36953,0.30234 -0.36953,0.36953 -0.80625,0.5375c-0.16797,0.06719 -0.36953,0.10078 -0.5375,0.13437c-0.10078,0 -0.20156,0 -0.30234,0c-0.50391,0 -0.97422,-0.10078 -1.37734,-0.47031c-0.36953,-0.30234 -0.57109,-0.77266 -0.63828,-1.24297c-0.03359,-0.50391 0.13438,-1.00781 0.47031,-1.37734c0.10078,-0.10078 0.23516,-0.23516 0.36953,-0.30234c0.03359,-0.06719 0.10078,-0.13438 0.13438,-0.20156c0.30234,-0.36953 0.77266,-0.57109 1.24297,-0.63828c0.50391,-0.03359 1.00781,0.13437 1.37734,0.47031c0.33594,0.30234 0.63828,0.77266 0.63828,1.24297c-0.03359,0.30234 -0.03359,0.57109 -0.10078,0.83984zM79.55,138.43984c-2.38516,0 -2.65391,-3.69531 -0.26875,-3.69531c2.35156,0 2.65391,3.69531 0.26875,3.69531zM84.58906,155.57266c-2.38516,0 -2.65391,-3.69531 -0.26875,-3.69531c2.35156,0 2.65391,3.69531 0.26875,3.69531zM85.83203,150.39922c-0.30234,0.33594 -0.77266,0.63828 -1.24297,0.63828h-0.50391c-0.50391,0 -0.97422,-0.10078 -1.37734,-0.47031c-0.36953,-0.30234 -0.57109,-0.77266 -0.63828,-1.24297c-0.03359,-0.50391 0.13438,-0.97422 0.47031,-1.37734c0.30234,-0.33594 0.77266,-0.63828 1.24297,-0.63828h0.50391c0.50391,0 0.97422,0.10078 1.37734,0.47031c0.36953,0.30234 0.57109,0.77266 0.63828,1.24297c0.03359,0.5375 -0.13437,1.00781 -0.47031,1.37734z" fill="#80aaff"></path>
                                    <path d="M92.31563,85.02578c-5.24062,-7.45781 -12.09375,-13.50469 -19.92109,-18.17422c-7.96172,-4.73672 -16.99844,-8.26406 -26.40469,-8.09609c-9.97734,0.16797 -19.04766,3.99766 -27.00937,9.84297c-0.33594,0.26875 -0.70547,0.36953 -1.04141,0.36953c-0.63828,3.69531 -0.90703,7.45781 -0.73906,11.2875c0.03359,0.20156 0.06719,0.40312 0.03359,0.63828c0,0.06719 0,0.10078 0,0.16797c0.03359,0.40313 -0.06719,0.73906 -0.20156,1.00781c-0.13437,0.77266 -0.23516,1.54531 -0.33594,2.28438c0.30234,-0.26875 0.70547,-0.47031 1.075,-0.47031h0.50391c0.50391,0 0.97422,0.10078 1.37734,0.47031c0.36953,0.30234 0.57109,0.77266 0.63828,1.24297c0.03359,0.50391 -0.13437,0.97422 -0.47031,1.37734c-0.30234,0.33594 -0.77266,0.63828 -1.24297,0.63828h-0.50391c-0.50391,0 -0.97422,-0.10078 -1.37734,-0.47031c-0.10078,-0.10078 -0.20156,-0.20156 -0.26875,-0.33594c-0.13437,1.54531 -0.23516,3.09063 -0.26875,4.63594h0.63828c0.50391,0 0.97422,0.10078 1.37734,0.47031c0.36953,0.30234 0.57109,0.77266 0.63828,1.24297c0.03359,0.50391 -0.13437,0.97422 -0.47031,1.37734c-0.30234,0.33594 -0.77266,0.63828 -1.24297,0.63828h-0.87344c0,0.33594 0.03359,0.67188 0.03359,1.00781c0.26875,0.13438 0.50391,0.33594 0.70547,0.67188c4.97188,7.65938 13.70625,10.75 22.44062,11.52266c9.10391,0.80625 18.40938,-0.50391 27.31172,-2.45234c7.79375,-1.71328 15.48672,-3.99766 23.07891,-6.51719c2.92266,-0.97422 5.81172,-1.98203 8.70078,-3.05703c-1.67969,-4.03125 -3.72891,-7.79375 -6.18125,-11.32109zM19.58516,74.94766c-2.38516,0 -2.65391,-3.69531 -0.26875,-3.69531c2.35156,0 2.65391,3.69531 0.26875,3.69531zM20.62656,83.3125c0,-1.075 0.20156,-2.04922 0.97422,-2.88906c0.70547,-0.73906 1.84766,-0.83984 2.62031,-0.16797c0.73906,0.63828 0.87344,1.88125 0.16797,2.62031c0,0.03359 -0.03359,0.03359 -0.03359,0.06719v0.03359c0,0.03359 0,0.03359 0,0.06719c0,1.00781 -0.63828,1.91484 -1.71328,1.98203c-0.97422,0.06719 -2.01563,-0.70547 -2.01563,-1.71328zM25.32969,95.1375c0,0.50391 -0.10078,0.97422 -0.47031,1.37734c-0.30234,0.36953 -0.77266,0.57109 -1.24297,0.63828c-0.50391,0.03359 -0.97422,-0.13438 -1.37734,-0.47031c-0.33594,-0.30234 -0.63828,-0.77266 -0.63828,-1.24297v-0.50391c0,-0.50391 0.10078,-0.97422 0.47031,-1.37734c0.30234,-0.36953 0.77266,-0.57109 1.24297,-0.63828c0.50391,-0.03359 0.97422,0.13437 1.37734,0.47031c0.33594,0.30234 0.63828,0.77266 0.63828,1.24297zM25.86719,65.70937c2.38516,0 2.65391,3.69531 0.26875,3.69531c-2.35156,0 -2.65391,-3.69531 -0.26875,-3.69531zM30.87266,93.12188c0,0.50391 -0.10078,0.97422 -0.47031,1.37734c-0.30234,0.36953 -0.77266,0.57109 -1.24297,0.63828c-0.50391,0.03359 -0.97422,-0.13438 -1.37734,-0.47031c-0.33594,-0.30234 -0.63828,-0.77266 -0.63828,-1.24297v-0.50391c0,-0.50391 0.10078,-0.97422 0.47031,-1.37734c0.30234,-0.36953 0.77266,-0.57109 1.24297,-0.63828c0.50391,-0.03359 0.97422,0.13437 1.37734,0.47031c0.33594,0.30234 0.63828,0.77266 0.63828,1.24297zM31.88047,73.46953c0,0.50391 -0.10078,0.97422 -0.47031,1.37734c-0.30234,0.36953 -0.77266,0.57109 -1.24297,0.63828c-0.50391,0.03359 -0.97422,-0.13438 -1.37734,-0.47031c-0.33594,-0.30234 -0.63828,-0.77266 -0.63828,-1.24297v-0.5375c0,-0.50391 0.10078,-0.97422 0.47031,-1.37734c0.30234,-0.36953 0.77266,-0.57109 1.24297,-0.63828c0.50391,-0.03359 0.97422,0.13438 1.37734,0.47031c0.33594,0.30234 0.63828,0.77266 0.63828,1.24297z" fill="#80aaff"></path>
                                    <path d="M119.15703,84.52188c-4.70312,-17.09922 -13.03438,-33.49297 -25.22891,-46.49375c-10.85078,-11.52266 -26.53906,-22.10469 -42.59687,-14.57969c-0.43672,0.20156 -0.80625,0.23516 -1.14219,0.13438c-5.50937,3.56094 -10.54844,7.79375 -14.94922,12.53047c-7.42422,7.96172 -13.30312,17.53594 -16.15859,27.95c9.1375,-6.11406 19.71953,-9.74219 30.87266,-8.80156c11.69062,0.97422 22.50781,6.48359 31.74609,13.47109c9.00312,6.81953 15.88984,15.95703 20.22344,26.23672c4.60234,-1.84766 9.10391,-3.89688 13.4375,-6.24844c1.44453,-0.77266 2.88906,-1.57891 4.3,-2.41875c-0.20156,-0.60469 -0.33594,-1.20937 -0.50391,-1.78047zM28.85703,53.31328c0,0.50391 -0.10078,0.97422 -0.47031,1.37734c-0.30234,0.36953 -0.77266,0.57109 -1.24297,0.63828c-0.50391,0.03359 -1.00781,-0.13437 -1.37734,-0.47031c-0.33594,-0.30234 -0.63828,-0.77266 -0.63828,-1.24297v-0.5375c0,-0.50391 0.10078,-0.97422 0.47031,-1.37734c0.30234,-0.36953 0.77266,-0.57109 1.24297,-0.63828c0.50391,-0.03359 1.00781,0.13437 1.37734,0.47031c0.33594,0.30234 0.63828,0.77266 0.63828,1.24297zM35.94531,49.65156c-0.30234,0.33594 -0.77266,0.63828 -1.24297,0.63828h-0.50391c-0.50391,0 -0.97422,-0.10078 -1.37734,-0.47031c-0.36953,-0.30234 -0.57109,-0.77266 -0.63828,-1.24297c-0.03359,-0.50391 0.13438,-1.00781 0.47031,-1.37734c0.30234,-0.33594 0.77266,-0.63828 1.24297,-0.63828h0.50391c0.50391,0 0.97422,0.10078 1.37734,0.47031c0.36953,0.30234 0.57109,0.77266 0.63828,1.24297c0.03359,0.50391 -0.13437,0.97422 -0.47031,1.37734zM40.74922,36.14688c-2.38516,0 -2.65391,-3.69531 -0.26875,-3.69531c2.35156,0 2.65391,3.69531 0.26875,3.69531zM48.00547,42.22734c0,0.50391 -0.10078,0.97422 -0.47031,1.37734c-0.30234,0.36953 -0.77266,0.57109 -1.24297,0.63828c-0.50391,0.03359 -0.97422,-0.13437 -1.37734,-0.47031c-0.33594,-0.30234 -0.63828,-0.77266 -0.63828,-1.24297v-0.5375c0,-0.50391 0.10078,-0.97422 0.47031,-1.37734c0.30234,-0.36953 0.77266,-0.57109 1.24297,-0.63828c0.50391,-0.03359 0.97422,0.13437 1.37734,0.47031c0.33594,0.30234 0.63828,0.77266 0.63828,1.24297zM54.08594,34.03047c-0.30234,0.33594 -0.77266,0.63828 -1.24297,0.63828h-0.50391c-0.50391,0 -0.97422,-0.10078 -1.37734,-0.47031c-0.36953,-0.30234 -0.57109,-0.77266 -0.63828,-1.24297c-0.03359,-0.50391 0.13437,-0.97422 0.47031,-1.37734c0.30234,-0.33594 0.77266,-0.63828 1.24297,-0.63828h0.50391c0.50391,0 0.97422,0.10078 1.37734,0.47031c0.36953,0.30234 0.57109,0.77266 0.63828,1.24297c0.03359,0.50391 -0.13437,1.00781 -0.47031,1.37734zM61.64453,22.37344c2.38516,0 2.65391,3.69531 0.26875,3.69531c-2.35156,0 -2.65391,-3.69531 -0.26875,-3.69531zM64.43281,32.61953c-2.38516,0 -2.65391,-3.69531 -0.26875,-3.69531c2.35156,0 2.65391,3.69531 0.26875,3.69531zM125.80859,131.55313c-0.40313,-2.41875 -0.83984,-4.87109 -1.14219,-7.28984c-0.30234,-2.45234 -0.33594,-4.93828 -0.47031,-7.39062c-0.57109,-9.03672 -1.64609,-18.03984 -3.62813,-26.875c-5.54297,3.19141 -11.35469,5.94609 -17.30078,8.36484c1.51172,4.19922 2.58672,8.53281 3.25859,13.00078c1.24297,8.6 0.94062,17.56953 -0.26875,26.16953c-0.97422,6.88672 -3.15781,13.26953 -6.75234,19.08125c7.55859,-1.41094 14.91562,-3.93047 21.70156,-7.525c1.44453,-0.77266 2.88906,-1.57891 4.3,-2.45234c0,-0.23516 0.06719,-0.50391 0.16797,-0.77266c1.84766,-4.36719 0.87344,-9.77578 0.13438,-14.31094zM111.8,148.01406c-2.38516,0 -2.65391,-3.69531 -0.26875,-3.69531c2.35156,0 2.65391,3.69531 0.26875,3.69531zM117.57813,141.83281c-0.63828,0.70547 -1.88125,0.87344 -2.62031,0.16797l-0.50391,-0.50391c-0.33594,-0.33594 -0.57109,-0.73906 -0.63828,-1.24297c-0.03359,-0.50391 0.13438,-1.00781 0.47031,-1.37734c0.63828,-0.70547 1.88125,-0.87344 2.62031,-0.16797c0.16797,0.16797 0.33594,0.33594 0.50391,0.50391c0.33594,0.33594 0.57109,0.73906 0.63828,1.24297c0.03359,0.5375 -0.13437,1.00781 -0.47031,1.37734z" fill="#80aaff"></path>
                                    <path d="M129.80625,68.02734c-2.55313,-7.55859 -4.87109,-15.41953 -5.94609,-23.34766c-0.90703,-6.65156 -1.17578,-14.27734 2.21719,-20.35781c-14.14297,-9.00313 -31.07422,-13.57188 -47.80391,-11.38828c-5.40859,0.70547 -10.71641,2.15 -15.82266,4.23281c17.03203,-0.06719 32.55234,14.88203 42.16016,28.11797c8.53281,11.75781 14.54609,25.06094 18.275,39.03594c3.56094,-2.25078 6.9875,-4.70312 10.17891,-7.42422c-1.14219,-2.95625 -2.25078,-5.87891 -3.25859,-8.86875zM91.375,21.43281c-0.30234,0.33594 -0.77266,0.63828 -1.24297,0.63828h-1.00781c-0.50391,0 -0.97422,-0.10078 -1.37734,-0.47031c-0.36953,-0.30234 -0.57109,-0.77266 -0.63828,-1.24297c-0.03359,-0.50391 0.13438,-0.97422 0.47031,-1.37734c0.30234,-0.33594 0.77266,-0.63828 1.24297,-0.63828h1.00781c0.50391,0 0.97422,0.10078 1.37734,0.47031c0.36953,0.30234 0.57109,0.77266 0.63828,1.24297c0.03359,0.50391 -0.13437,1.00781 -0.47031,1.37734zM104.98047,22.44063c-0.30234,0.33594 -0.77266,0.63828 -1.24297,0.63828h-0.50391c-0.50391,0 -0.97422,-0.10078 -1.37734,-0.47031c-0.36953,-0.30234 -0.57109,-0.77266 -0.63828,-1.24297c-0.03359,-0.50391 0.13438,-1.00781 0.47031,-1.37734c0.30234,-0.33594 0.77266,-0.63828 1.24297,-0.63828h0.50391c0.50391,0 0.97422,0.10078 1.37734,0.47031c0.36953,0.30234 0.57109,0.77266 0.63828,1.24297c0.03359,0.50391 -0.13437,1.00781 -0.47031,1.37734z" fill="#80aaff"></path>
                                    <path d="M151.47422,50.35703c-5.57656,-9.40625 -13.30313,-17.56953 -22.30625,-23.91875c-3.02344,5.84531 -2.45234,13.13516 -1.41094,19.45078c1.27656,7.72656 3.52734,15.35234 6.14766,22.70938c0.67188,1.91484 1.37734,3.79609 2.08281,5.71094c0.67188,-0.60469 1.34375,-1.24297 1.98203,-1.88125c5.47578,-5.47578 11.48906,-11.42187 13.30313,-19.14844c-0.83984,-0.83984 -0.94063,-2.35156 0.20156,-2.92266zM156.47969,108.40703c-0.33594,-0.50391 -2.75469,-1.075 -3.59453,-1.37734c-1.6125,-0.60469 -3.02344,-1.41094 -4.36719,-2.45234c-3.05703,-2.31797 -5.17344,-5.27422 -6.85312,-8.66719c-2.55313,-5.07266 -4.93828,-10.24609 -7.15547,-15.48672c-1.04141,0.83984 -2.08281,1.67969 -3.12422,2.45234c-2.45234,1.84766 -4.97187,3.52734 -7.55859,5.13984c0.60469,2.55313 1.14219,5.10625 1.6125,7.69297c0.83984,4.63594 1.44453,9.30547 1.88125,14.00859c0.43672,4.60234 0.40313,9.27188 0.97422,13.84063c0.80625,6.34922 2.95625,13.47109 1.81406,19.98828c10.98516,-7.89453 19.8875,-18.61094 25.29609,-31.07422c0.50391,-1.20938 1.00781,-2.41875 1.44453,-3.62813c-0.13438,-0.13437 -0.26875,-0.26875 -0.36953,-0.43672zM138.23828,131.25078c-0.30234,0.33594 -0.77266,0.63828 -1.24297,0.63828h-0.50391c-0.50391,0 -0.97422,-0.10078 -1.37734,-0.47031c-0.36953,-0.30234 -0.57109,-0.77266 -0.63828,-1.24297c-0.03359,-0.50391 0.13437,-0.97422 0.47031,-1.37734c0.30234,-0.33594 0.77266,-0.63828 1.24297,-0.63828h0.50391c0.50391,0 0.97422,0.10078 1.37734,0.47031c0.36953,0.30234 0.57109,0.77266 0.63828,1.24297c0.03359,0.5375 -0.13438,1.00781 -0.47031,1.37734z" fill="#80aaff"></path>
                                    <path d="M157.35313,62.82031c-0.83984,-2.38516 -1.81406,-4.73672 -2.92266,-7.02109c-1.51172,4.90469 -4.56875,9.27188 -7.99531,13.13516c-2.82188,3.15781 -5.81172,6.18125 -9.00313,9.00312c2.35156,5.87891 4.97188,11.69062 7.96172,17.23359c1.67969,3.09063 3.96406,6.01328 7.12187,7.69297c1.6125,0.83984 3.89688,1.20937 5.57656,2.21719c4.19922,-13.77344 4.06484,-28.62188 -0.73906,-42.26094z" fill="#80aaff"></path>
                                    <path d="M146.56953,37.0875c-10.81719,-12.42969 -25.36328,-21.43281 -41.25313,-25.8c-16.15859,-4.43437 -33.08984,-3.02344 -48.20703,4.19922c-24.42266,11.72422 -45.08281,37.02031 -43.57109,65.17187c-2.95625,16.25938 0.13438,32.75391 8.39844,47.06484c7.99531,13.77344 20.92891,24.75859 36.04609,29.86484c11.62344,3.93047 23.91875,5.03906 35.91172,3.56094c0.70547,0.63828 1.74688,0.77266 2.48594,-0.16797c0.03359,-0.06719 0.10078,-0.13438 0.13437,-0.20156c19.71953,-3.02344 38.29688,-13.03437 51.12969,-28.72266c10.95156,-13.4375 17.2,-30.20078 17.16641,-47.56875c-0.03359,-17.30078 -6.88672,-34.4 -18.24141,-47.40078zM129.16797,26.40469c9.00313,6.34922 16.72969,14.54609 22.30625,23.91875c-1.14219,0.57109 -1.04141,2.08281 -0.20156,2.88906c-1.81406,7.76016 -7.79375,13.67266 -13.30312,19.14844c-0.63828,0.63828 -1.31016,1.27656 -1.98203,1.88125c-0.73906,-1.91484 -1.41094,-3.79609 -2.08281,-5.71094c-2.62031,-7.35703 -4.87109,-14.98281 -6.14766,-22.70937c-1.04141,-6.24844 -1.64609,-13.57187 1.41094,-19.41719zM78.27344,12.93359c16.72969,-2.15 33.62734,2.41875 47.80391,11.42188c-3.39297,6.04688 -3.12422,13.67266 -2.21719,20.35781c1.10859,7.92812 3.39297,15.75547 5.94609,23.34766c1.00781,2.98984 2.08281,5.9125 3.25859,8.83516c-3.225,2.6875 -6.65156,5.17344 -10.17891,7.42422c-3.72891,-13.975 -9.74219,-27.27812 -18.275,-39.03594c-9.60781,-13.26953 -25.12812,-28.21875 -42.16016,-28.15156c5.10625,-2.04922 10.41406,-3.52734 15.82266,-4.19922zM35.20625,36.07969c4.40078,-4.70312 9.43984,-8.96953 14.94922,-12.53047c0.33594,0.10078 0.73906,0.06719 1.14219,-0.13438c16.09141,-7.525 31.77969,3.05703 42.59688,14.57969c12.22812,12.96719 20.52578,29.39453 25.22891,46.49375c0.16797,0.57109 0.30234,1.17578 0.47031,1.74688c-1.41094,0.83984 -2.85547,1.64609 -4.3,2.41875c-4.36719,2.35156 -8.86875,4.40078 -13.4375,6.24844c-4.33359,-10.27969 -11.22031,-19.41719 -20.22344,-26.23672c-9.23828,-6.9875 -20.05547,-12.46328 -31.74609,-13.47109c-11.11953,-0.94063 -21.73516,2.6875 -30.87266,8.80156c2.88906,-10.38047 8.73438,-19.95469 16.19219,-27.91641zM16.22578,96.11172c-0.03359,-0.33594 -0.03359,-0.67187 -0.03359,-1.00781h0.87344c0.47031,0 0.94062,-0.30234 1.24297,-0.63828c0.33594,-0.36953 0.50391,-0.87344 0.47031,-1.37734c-0.03359,-0.47031 -0.26875,-0.94063 -0.63828,-1.24297c-0.40312,-0.33594 -0.83984,-0.47031 -1.37734,-0.47031h-0.63828c0.03359,-1.54531 0.13437,-3.09062 0.26875,-4.63594c0.06719,0.10078 0.16797,0.23516 0.26875,0.33594c0.40313,0.33594 0.83984,0.47031 1.37734,0.47031h0.50391c0.47031,0 0.94062,-0.30234 1.24297,-0.63828c0.33594,-0.36953 0.50391,-0.87344 0.47031,-1.37734c-0.03359,-0.47031 -0.26875,-0.94063 -0.63828,-1.24297c-0.40312,-0.33594 -0.83984,-0.47031 -1.37734,-0.47031h-0.43672c-0.36953,0 -0.77266,0.20156 -1.075,0.47031c0.10078,-0.77266 0.20156,-1.54531 0.33594,-2.28437c0.13437,-0.26875 0.23516,-0.60469 0.20156,-1.00781c0,-0.06719 0,-0.10078 0,-0.16797c0.03359,-0.23516 0,-0.43672 -0.03359,-0.63828c-0.20156,-3.82969 0.06719,-7.59219 0.73906,-11.2875c0.33594,0 0.67188,-0.10078 1.04141,-0.36953c7.96172,-5.81172 17.03203,-9.675 27.00938,-9.84297c9.40625,-0.16797 18.44297,3.35938 26.40469,8.09609c7.82734,4.66953 14.68047,10.71641 19.92109,18.17422c2.45234,3.49375 4.50156,7.25625 6.14766,11.22031c-2.88906,1.075 -5.77813,2.11641 -8.70078,3.05703c-7.59219,2.51953 -15.28516,4.77031 -23.07891,6.51719c-8.86875,1.98203 -18.20781,3.25859 -27.31172,2.45234c-8.73438,-0.77266 -17.46875,-3.89688 -22.44062,-11.52266c-0.23516,-0.23516 -0.47031,-0.43672 -0.73906,-0.57109zM94.53281,157.38672c-6.9875,0.87344 -14.10937,0.83984 -21.09687,-0.06719c-8.23047,-1.075 -16.19219,-3.32578 -23.51563,-7.25625c-0.63828,-0.33594 -1.27656,-0.70547 -1.88125,-1.075c0.40312,-0.06719 0.77266,-0.30234 1.04141,-0.60469c0.33594,-0.36953 0.50391,-0.87344 0.47031,-1.37734c-0.03359,-0.47031 -0.26875,-0.94063 -0.63828,-1.24297c-0.40312,-0.33594 -0.83984,-0.47031 -1.37734,-0.47031h-0.50391c-0.47031,0 -0.94063,0.30234 -1.24297,0.63828c-0.33594,0.36953 -0.50391,0.87344 -0.47031,1.34375c-2.75469,-1.81406 -5.34141,-3.86328 -7.76016,-6.08047c0.26875,-0.36953 0.36953,-0.80625 0.36953,-1.24297v-0.50391c0,-0.47031 -0.30234,-0.94063 -0.63828,-1.24297c-0.36953,-0.33594 -0.87344,-0.50391 -1.37734,-0.47031c-0.47031,0.03359 -0.94062,0.26875 -1.24297,0.63828c0,0 0,0.03359 -0.03359,0.03359c-1.075,-1.10859 -2.08281,-2.25078 -3.09062,-3.42656c-7.82734,-9.33906 -12.86641,-20.59297 -14.68047,-32.38438c8.33125,8.66719 21.63438,10.14531 33.325,9.40625c15.15078,-0.97422 30.20078,-5.50937 44.47813,-10.44766c1.71328,-0.60469 3.42656,-1.20938 5.10625,-1.84766c0.97422,2.75469 1.74688,5.57656 2.35156,8.43203c1.78047,8.6 1.57891,17.36797 0.73906,26.06875c-0.80625,8.46562 -3.35937,16.32656 -8.33125,23.17969zM125.64063,145.86406c-0.10078,0.26875 -0.16797,0.5375 -0.16797,0.77266c-1.41094,0.87344 -2.82187,1.67969 -4.3,2.45234c-6.81953,3.62812 -14.14297,6.11406 -21.70156,7.525c3.56094,-5.81172 5.77812,-12.19453 6.75234,-19.08125c1.20938,-8.6 1.51172,-17.56953 0.26875,-26.16953c-0.63828,-4.43438 -1.74687,-8.80156 -3.25859,-13.00078c5.94609,-2.41875 11.75781,-5.17344 17.30078,-8.36484c2.01563,8.83516 3.09062,17.83828 3.62812,26.875c0.16797,2.45234 0.16797,4.93828 0.47031,7.39063c0.30234,2.45234 0.77266,4.87109 1.14219,7.28984c0.77266,4.53516 1.74688,9.94375 -0.13438,14.31094zM155.40469,112.43828c-5.40859,12.46328 -14.31094,23.17969 -25.29609,31.07422c1.14219,-6.51719 -1.04141,-13.63906 -1.81406,-19.98828c-0.57109,-4.56875 -0.5375,-9.23828 -0.97422,-13.84063c-0.43672,-4.70312 -1.075,-9.37266 -1.88125,-14.00859c-0.47031,-2.58672 -1.00781,-5.13984 -1.6125,-7.69297c2.58672,-1.6125 5.10625,-3.32578 7.55859,-5.13984c1.075,-0.80625 2.11641,-1.6125 3.12422,-2.45234c2.18359,5.24063 4.60234,10.41406 7.15547,15.48672c1.71328,3.39297 3.79609,6.38281 6.85312,8.66719c1.37734,1.04141 2.78828,1.84766 4.36719,2.45234c0.83984,0.30234 3.25859,0.90703 3.59453,1.37734c0.10078,0.16797 0.23516,0.30234 0.36953,0.40313c-0.43672,1.24297 -0.94063,2.45234 -1.44453,3.66172zM152.51563,102.83047c-3.15781,-1.67969 -5.44219,-4.60234 -7.12187,-7.69297c-2.98984,-5.54297 -5.61016,-11.32109 -7.96172,-17.23359c3.15781,-2.82187 6.18125,-5.84531 9.00313,-9.00312c3.42656,-3.82969 6.45,-8.19688 7.99531,-13.13516c1.10859,2.28438 2.08281,4.63594 2.92266,7.02109c4.80391,13.63906 4.93828,28.4875 0.77266,42.22734c-1.67969,-0.97422 -3.99766,-1.34375 -5.61016,-2.18359z" fill="#000000"></path>
                                    <path d="M49.55078,136.25625c-2.38516,0 -2.08281,3.69531 0.26875,3.69531c2.38516,0 2.08281,-3.69531 -0.26875,-3.69531zM39.80859,126.64844c-0.40313,-0.33594 -0.83984,-0.47031 -1.37734,-0.47031h-0.47031c-0.47031,0 -0.94062,0.30234 -1.24297,0.63828c-0.33594,0.36953 -0.50391,0.87344 -0.47031,1.37734c0.03359,0.47031 0.26875,0.94063 0.63828,1.24297c0.40313,0.33594 0.83984,0.47031 1.37734,0.47031h0.50391c0.47031,0 0.94062,-0.30234 1.24297,-0.63828c0.33594,-0.36953 0.50391,-0.87344 0.47031,-1.37734c-0.06719,-0.47031 -0.30234,-0.94063 -0.67187,-1.24297zM49.88672,127.65625c-0.40312,-0.33594 -0.83984,-0.47031 -1.37734,-0.47031h-0.47031c-0.47031,0 -0.94063,0.30234 -1.24297,0.63828c-0.33594,0.36953 -0.50391,0.87344 -0.47031,1.37734c0.03359,0.47031 0.26875,0.94063 0.63828,1.24297c0.40312,0.33594 0.83984,0.47031 1.37734,0.47031h0.50391c0.47031,0 0.94063,-0.30234 1.24297,-0.63828c0.33594,-0.36953 0.50391,-0.87344 0.47031,-1.37734c-0.06719,-0.47031 -0.30234,-0.94062 -0.67187,-1.24297zM31.91406,118.11563c-2.38516,0 -2.08281,3.69531 0.26875,3.69531c2.38516,0 2.08281,-3.69531 -0.26875,-3.69531zM30.23438,91.375c-0.36953,-0.33594 -0.87344,-0.50391 -1.37734,-0.47031c-0.47031,0.03359 -0.94063,0.26875 -1.24297,0.63828c-0.33594,0.40313 -0.47031,0.83984 -0.47031,1.37734v0.50391c0,0.47031 0.30234,0.94062 0.63828,1.24297c0.36953,0.33594 0.87344,0.50391 1.37734,0.47031c0.47031,-0.03359 0.94062,-0.26875 1.24297,-0.63828c0.33594,-0.40312 0.47031,-0.83984 0.47031,-1.37734v-0.50391c0,-0.47031 -0.30234,-0.94063 -0.63828,-1.24297zM24.1875,80.28906c-0.77266,-0.67187 -1.91484,-0.57109 -2.62031,0.16797c-0.77266,0.80625 -0.94062,1.78047 -0.97422,2.88906c0,1.00781 1.04141,1.78047 1.98203,1.71328c1.075,-0.06719 1.71328,-0.97422 1.71328,-1.98203c0,-0.03359 0,-0.03359 0,-0.06719c0,0 0,0 0,-0.03359c0,-0.03359 0.03359,-0.03359 0.03359,-0.06719c0.73906,-0.73906 0.60469,-1.98203 -0.13437,-2.62031zM31.24219,71.72266c-0.36953,-0.33594 -0.87344,-0.50391 -1.37734,-0.47031c-0.47031,0.03359 -0.94063,0.26875 -1.24297,0.63828c-0.33594,0.40313 -0.47031,0.83984 -0.47031,1.37734v0.50391c0,0.47031 0.30234,0.94063 0.63828,1.24297c0.36953,0.33594 0.87344,0.50391 1.37734,0.47031c0.47031,-0.03359 0.94062,-0.26875 1.24297,-0.63828c0.33594,-0.40313 0.47031,-0.83984 0.47031,-1.37734v-0.50391c0,-0.47031 -0.30234,-0.94062 -0.63828,-1.24297zM25.86719,65.70937c-2.38516,0 -2.08281,3.69531 0.26875,3.69531c2.38516,0 2.08281,-3.69531 -0.26875,-3.69531zM35.77734,47.03125c-0.40313,-0.33594 -0.83984,-0.47031 -1.37734,-0.47031h-0.47031c-0.47031,0 -0.94062,0.30234 -1.24297,0.63828c-0.33594,0.36953 -0.50391,0.87344 -0.47031,1.37734c0.03359,0.47031 0.26875,0.94062 0.63828,1.24297c0.40313,0.33594 0.83984,0.47031 1.37734,0.47031h0.50391c0.47031,0 0.94062,-0.30234 1.24297,-0.63828c0.33594,-0.36953 0.50391,-0.87344 0.47031,-1.37734c-0.06719,-0.47031 -0.30234,-0.94062 -0.67187,-1.24297zM47.36719,40.48047c-0.36953,-0.33594 -0.87344,-0.50391 -1.37734,-0.47031c-0.47031,0.03359 -0.94062,0.26875 -1.24297,0.63828c-0.33594,0.40313 -0.47031,0.83984 -0.47031,1.37734v0.50391c0,0.47031 0.30234,0.94062 0.63828,1.24297c0.36953,0.33594 0.87344,0.50391 1.37734,0.47031c0.47031,-0.03359 0.94063,-0.26875 1.24297,-0.63828c0.33594,-0.40312 0.47031,-0.83984 0.47031,-1.37734v-0.50391c0,-0.47031 -0.30234,-0.94062 -0.63828,-1.24297zM53.91797,31.41016c-0.40312,-0.33594 -0.83984,-0.47031 -1.37734,-0.47031h-0.47031c-0.47031,0 -0.94063,0.30234 -1.24297,0.63828c-0.33594,0.36953 -0.50391,0.87344 -0.47031,1.37734c0.03359,0.47031 0.26875,0.94062 0.63828,1.24297c0.40312,0.33594 0.83984,0.47031 1.37734,0.47031h0.50391c0.47031,0 0.94063,-0.30234 1.24297,-0.63828c0.33594,-0.36953 0.50391,-0.87344 0.47031,-1.37734c-0.06719,-0.47031 -0.30234,-0.94063 -0.67187,-1.24297zM64.16406,28.92422c-2.38516,0 -2.08281,3.69531 0.26875,3.69531c2.38516,0 2.08281,-3.69531 -0.26875,-3.69531zM72.5625,144.78906c-0.36953,-0.33594 -0.87344,-0.50391 -1.37734,-0.47031c-0.47031,0.03359 -0.94063,0.26875 -1.24297,0.63828c-0.33594,0.40312 -0.47031,0.83984 -0.47031,1.37734v0.50391c0,0.47031 0.30234,0.94063 0.63828,1.24297c0.36953,0.33594 0.87344,0.50391 1.37734,0.47031c0.47031,-0.03359 0.94063,-0.26875 1.24297,-0.63828c0.33594,-0.40313 0.47031,-0.83984 0.47031,-1.37734v-0.50391c0,-0.47031 -0.30234,-0.94062 -0.63828,-1.24297zM79.28125,134.74453c-2.38516,0 -2.08281,3.69531 0.26875,3.69531c2.38516,0 2.08281,-3.69531 -0.26875,-3.69531zM85.66406,147.8125c-0.40313,-0.33594 -0.83984,-0.47031 -1.37734,-0.47031h-0.50391c-0.47031,0 -0.94063,0.30234 -1.24297,0.63828c-0.33594,0.36953 -0.50391,0.87344 -0.47031,1.37734c0.03359,0.47031 0.26875,0.94063 0.63828,1.24297c0.40313,0.33594 0.83984,0.47031 1.37734,0.47031h0.50391c0.47031,0 0.94063,-0.30234 1.24297,-0.63828c0.33594,-0.36953 0.50391,-0.87344 0.47031,-1.37734c-0.03359,-0.47031 -0.26875,-0.94062 -0.63828,-1.24297zM61.14063,135.75234c-2.38516,0 -2.08281,3.69531 0.26875,3.69531c2.38516,0 2.08281,-3.69531 -0.26875,-3.69531zM111.53125,144.31875c-2.38516,0 -2.08281,3.69531 0.26875,3.69531c2.38516,0 2.08281,-3.69531 -0.26875,-3.69531zM138.07031,128.66406c-0.40312,-0.33594 -0.83984,-0.47031 -1.37734,-0.47031h-0.50391c-0.47031,0 -0.94063,0.30234 -1.24297,0.63828c-0.33594,0.36953 -0.50391,0.87344 -0.47031,1.37734c0.03359,0.47031 0.26875,0.94063 0.63828,1.24297c0.40313,0.33594 0.83984,0.47031 1.37734,0.47031h0.50391c0.47031,0 0.94062,-0.30234 1.24297,-0.63828c0.33594,-0.36953 0.50391,-0.87344 0.47031,-1.37734c-0.03359,-0.47031 -0.26875,-0.94062 -0.63828,-1.24297zM117.41016,139.24609c-0.16797,-0.16797 -0.33594,-0.33594 -0.50391,-0.50391c-0.70547,-0.70547 -1.98203,-0.5375 -2.62031,0.16797c-0.33594,0.36953 -0.50391,0.87344 -0.47031,1.37734c0.03359,0.50391 0.26875,0.90703 0.63828,1.24297l0.50391,0.50391c0.70547,0.70547 1.98203,0.5375 2.62031,-0.16797c0.33594,-0.36953 0.50391,-0.87344 0.47031,-1.37734c-0.06719,-0.50391 -0.30234,-0.90703 -0.63828,-1.24297zM91.20703,18.8125c-0.40313,-0.33594 -0.83984,-0.47031 -1.37734,-0.47031h-1.00781c-0.47031,0 -0.94062,0.30234 -1.24297,0.63828c-0.33594,0.36953 -0.50391,0.87344 -0.47031,1.37734c0.03359,0.47031 0.26875,0.94062 0.63828,1.24297c0.40312,0.33594 0.83984,0.47031 1.37734,0.47031h1.00781c0.47031,0 0.94063,-0.30234 1.24297,-0.63828c0.33594,-0.36953 0.50391,-0.87344 0.47031,-1.37734c-0.03359,-0.47031 -0.26875,-0.94063 -0.63828,-1.24297zM104.8125,19.82031c-0.40313,-0.33594 -0.83984,-0.47031 -1.37734,-0.47031h-0.50391c-0.47031,0 -0.94062,0.30234 -1.24297,0.63828c-0.33594,0.36953 -0.50391,0.87344 -0.47031,1.37734c0.03359,0.47031 0.26875,0.94063 0.63828,1.24297c0.40312,0.33594 0.83984,0.47031 1.37734,0.47031h0.50391c0.47031,0 0.94063,-0.30234 1.24297,-0.63828c0.33594,-0.36953 0.50391,-0.87344 0.47031,-1.37734c-0.03359,-0.47031 -0.26875,-0.94063 -0.63828,-1.24297zM61.64453,22.37344c-2.38516,0 -2.08281,3.69531 0.26875,3.69531c2.38516,0 2.08281,-3.69531 -0.26875,-3.69531zM40.48047,32.45156c-2.38516,0 -2.08281,3.69531 0.26875,3.69531c2.38516,0 2.08281,-3.69531 -0.26875,-3.69531zM28.21875,51.56641c-0.36953,-0.33594 -0.87344,-0.50391 -1.37734,-0.47031c-0.47031,0.03359 -0.94063,0.26875 -1.24297,0.63828c-0.33594,0.40312 -0.47031,0.83984 -0.47031,1.37734v0.50391c0,0.47031 0.30234,0.94062 0.63828,1.24297c0.36953,0.33594 0.87344,0.50391 1.37734,0.47031c0.47031,-0.03359 0.94062,-0.26875 1.24297,-0.63828c0.33594,-0.40312 0.47031,-0.83984 0.47031,-1.37734v-0.50391c0,-0.47031 -0.30234,-0.94062 -0.63828,-1.24297zM19.31641,71.25234c-2.38516,0 -2.08281,3.69531 0.26875,3.69531c2.38516,0 2.08281,-3.69531 -0.26875,-3.69531zM24.69141,93.39063c-0.36953,-0.33594 -0.87344,-0.50391 -1.37734,-0.47031c-0.47031,0.03359 -0.94063,0.26875 -1.24297,0.63828c-0.33594,0.40313 -0.47031,0.83984 -0.47031,1.37734v0.50391c0,0.47031 0.30234,0.94062 0.63828,1.24297c0.36953,0.33594 0.87344,0.50391 1.37734,0.47031c0.47031,-0.03359 0.94062,-0.26875 1.24297,-0.63828c0.33594,-0.40312 0.47031,-0.83984 0.47031,-1.37734v-0.50391c0,-0.47031 -0.30234,-0.94063 -0.63828,-1.24297zM24.1875,109.51563c-0.40312,-0.33594 -0.83984,-0.47031 -1.37734,-0.47031h-0.50391c-0.47031,0 -0.94063,0.30234 -1.24297,0.63828c-0.33594,0.36953 -0.50391,0.87344 -0.47031,1.37734c0.03359,0.47031 0.26875,0.94062 0.63828,1.24297c0.40313,0.33594 0.83984,0.47031 1.37734,0.47031h0.50391c0.47031,0 0.94062,-0.30234 1.24297,-0.63828c0.33594,-0.36953 0.50391,-0.87344 0.47031,-1.37734c-0.03359,-0.47031 -0.26875,-0.94063 -0.63828,-1.24297zM29.32734,123.52422c-0.03359,-0.16797 -0.03359,-0.36953 -0.13438,-0.5375c-0.16797,-0.43672 -0.23516,-0.47031 -0.5375,-0.80625c-0.20156,-0.23516 -0.67187,-0.43672 -1.00781,-0.47031c-0.26875,-0.03359 -0.5375,-0.03359 -0.80625,-0.03359c-0.47031,0 -0.94063,0.30234 -1.24297,0.63828c-0.33594,0.36953 -0.50391,0.87344 -0.47031,1.37734c0.03359,0.47031 0.26875,0.94062 0.63828,1.24297c0.06719,0.06719 0.13438,0.10078 0.20156,0.13437c0.10078,0.13437 0.20156,0.26875 0.30234,0.36953c0.36953,0.33594 0.87344,0.50391 1.37734,0.47031c0.47031,-0.03359 0.94063,-0.26875 1.24297,-0.63828c0.33594,-0.40312 0.47031,-0.83984 0.47031,-1.37734c0,-0.13437 0,-0.23516 -0.03359,-0.36953zM59.46094,147.30859c-0.40312,-0.33594 -0.83984,-0.47031 -1.37734,-0.47031h-0.50391c-0.47031,0 -0.94062,0.30234 -1.24297,0.63828c-0.33594,0.36953 -0.50391,0.87344 -0.47031,1.37734c0.03359,0.47031 0.26875,0.94063 0.63828,1.24297c0.40312,0.33594 0.83984,0.47031 1.37734,0.47031h0.50391c0.47031,0 0.94063,-0.30234 1.24297,-0.63828c0.33594,-0.36953 0.50391,-0.87344 0.47031,-1.37734c-0.03359,-0.47031 -0.26875,-0.94062 -0.63828,-1.24297zM70.71484,152.38125c-2.38516,0 -2.08281,3.69531 0.26875,3.69531c2.38516,0 2.08281,-3.69531 -0.26875,-3.69531zM79.75156,155.10234c0,-0.47031 -0.30234,-0.94062 -0.63828,-1.24297c-0.36953,-0.33594 -0.87344,-0.50391 -1.37734,-0.47031c-0.47031,0.03359 -0.94063,0.26875 -1.24297,0.63828c-0.06719,0.06719 -0.10078,0.13438 -0.13438,0.20156c-0.13437,0.10078 -0.26875,0.20156 -0.36953,0.30234c-0.33594,0.36953 -0.50391,0.87344 -0.47031,1.37734c0.03359,0.47031 0.26875,0.94063 0.63828,1.24297c0.40313,0.33594 0.83984,0.47031 1.37734,0.47031c0.10078,0 0.20156,0 0.30234,0c0.16797,-0.03359 0.36953,-0.03359 0.5375,-0.13437c0.43672,-0.16797 0.47031,-0.23516 0.80625,-0.5375c0.23516,-0.20156 0.43672,-0.67187 0.47031,-1.00781c0.10078,-0.30234 0.10078,-0.57109 0.10078,-0.83984zM84.32031,151.87734c-2.38516,0 -2.08281,3.69531 0.26875,3.69531c2.38516,0 2.08281,-3.69531 -0.26875,-3.69531z" fill="#000000"></path>
                                </g>
                            </g>
                        </svg>